<svg width="180" height="92" xmlns="http://www.w3.org/2000/svg" color-interpolation-filters="sRGB" preserveAspectRatio="xMidYMid meet" version="1.0">

 <g>
  <title>Layer 1</title>
  <g id="svg_3" class="icon-text-wrapper icon-svg-group iconsvg" fill="#ffffff" height="1000" width="1000px">
   <g id="svg_4" class="iconsvg-imagesvg">
    <g id="svg_5">
     <rect id="svg_6" class="image-rect" height="60.08893" width="60" y="0" x="59.8283" stroke-width="2" fill-opacity="0" fill="#ffffff"/>
     <g id="svg_1">
      <svg id="svg_7" class="image-svg-svg primary" filtersec="colorsb8004664792" height="60.08893" width="60" y="0" x="59.8283">
       <g id="svg_2">
        <svg id="svg_8" viewBox="-2 -1.11841 128.02487000000002 128.2092" xmlns="http://www.w3.org/2000/svg">
         <g id="svg_9" fill="none" stroke-width="2">
          <path id="svg_10" d="m50.37,27.25l-0.55,1.57q-0.04,0.13 -0.15,0.22q-0.27,0.22 -0.44,0.11q-0.6,-0.36 -0.67,0.35q-0.02,0.21 -0.15,0.36q-0.37,0.42 -0.77,0.02q-0.36,-0.37 -0.57,-0.08m-7.23,4.33q-1.24,0.24 -2.07,0.98a1.62,1.6 19.7 0 1 -0.84,0.39l-0.94,0.13" stroke="#2f92df"/>
          <path id="svg_11" d="m59.97,56.54q-0.17,-0.04 -0.31,-0.13q-0.16,-0.1 -0.26,0.06l-0.28,0.44q-0.19,0.29 -0.53,0.2q-1.16,-0.29 -2.55,0.53m-8.07,3l-3.2,-0.7q-0.23,-0.05 -0.16,0.17q0.05,0.17 -0.06,0.32q-0.15,0.21 -0.3,0q-0.13,-0.18 -0.23,-0.66" stroke="#5a6beb"/>
          <path id="svg_12" d="m35.93,109.36l-2.99,0.26q-0.53,0.04 -0.34,-0.46q0.06,-0.13 0.01,-0.27q-0.08,-0.21 -0.3,-0.25q-0.21,-0.03 -0.47,0.24m-3.59,-0.13l-4.3,0.68" stroke="#8645f8"/>
          <path id="svg_13" d="m79.98,60.43q-0.84,-0.67 -2.44,-1.1q-0.22,-0.05 -0.43,0.01q-0.19,0.06 -0.29,0.23q-0.28,0.45 -0.58,0.01l-0.22,-0.33m-8.05,-8.91q-0.57,0.49 -1.7,0.36q-0.49,-0.05 -0.85,0.29q-0.63,0.6 -1.39,0.57" stroke="#5471e9"/>
          <path id="svg_14" d="m19.94,108.44q-1.47,-0.29 -4.17,0.4m-3.43,-7.6l-4.25,0.73" stroke="#8645f8"/>
         </g>
         <path id="svg_15" d="m50.37,27.25l-0.55,1.57q-0.04,0.13 -0.15,0.22q-0.27,0.22 -0.44,0.11q-0.6,-0.36 -0.67,0.35q-0.02,0.21 -0.15,0.36q-0.37,0.42 -0.77,0.02q-0.36,-0.37 -0.57,-0.08l-1.81,-3.81q-0.51,-1.07 -1.56,-0.54l-5.51,2.75q-1.14,0.57 -0.55,1.7l2.2,4.23q-1.24,0.24 -2.07,0.98a1.62,1.6 19.7 0 1 -0.84,0.39l-0.94,0.13q-5.81,-11.77 -11.71,-23.42q-0.64,-1.28 -0.32,-3.95q0.24,-2.04 1.35,-3.6c3.87,-5.43 11.2,-4.95 14.28,1.07q5.49,10.72 10.78,21.52zm-14.53,-2.45l6.42,-3.18a0.62,0.62 0 0 0 0.27,-0.83l-6.5,-13.12a4.48,4.1 63.6 0 0 -5.67,-2.19l-0.18,0.09a4.48,4.1 63.6 0 0 -1.68,5.84l6.51,13.11a0.62,0.62 0 0 0 0.83,0.28z" fill="#1fa1da"/>
         <path id="svg_16" d="m79.98,60.43q-0.84,-0.67 -2.44,-1.1q-0.22,-0.05 -0.43,0.01q-0.19,0.06 -0.29,0.23q-0.28,0.45 -0.58,0.01l-0.22,-0.33l-0.05,-5.45q-0.01,-0.53 -0.49,-0.75q-3.37,-1.58 -6.82,-3.49q-0.26,-0.14 -0.48,0.04q-0.23,0.19 -0.21,0.74q-0.57,0.49 -1.7,0.36q-0.49,-0.05 -0.85,0.29q-0.63,0.6 -1.39,0.57q-0.54,-4.13 1.3,-7.77q8.2,-16.13 17.46,-35.08q2.13,-4.35 3.71,-5.77c4.19,-3.74 10.59,-2.08 12.89,3.02q1.6,3.58 -0.5,7.78q-5.59,11.19 -10.61,21.31q-0.23,0.47 0.24,0.69l2.24,1.07a0.6,0.59 22.4 0 0 0.81,-0.33q1.72,-4.56 3.69,-8.09c4.23,-7.6 15.7,-1.39 12.21,6.21q-3.66,8.01 -8.03,17.79c-1.59,3.55 -5.18,5.7 -8.98,4.2q-3.8,-1.5 -4.42,-5.34c-0.53,-3.3 1.95,-6.77 3.03,-9.86q0.3,-0.84 -0.52,-1.18l-1.65,-0.7q-0.69,-0.29 -1.03,0.37q-2.33,4.57 -4.88,9.63c-1.57,3.11 -0.99,7.47 -1.01,10.92zm1.63,-38.91l6.64,3.3a0.52,0.52 0 0 0 0.7,-0.23l6.5,-13.1a4.56,4.06 -63.6 0 0 -1.61,-5.89l-0.3,-0.15a4.56,4.06 -63.6 0 0 -5.67,2.28l-6.5,13.1a0.52,0.52 0 0 0 0.24,0.69zm4.9309,7.8172a0.66,0.66 0 0 0 -0.2961,-0.8852l-6.372,-3.1769a0.66,0.66 0 0 0 -0.8851,0.2961l-9.5486,19.1516a0.66,0.66 0 0 0 0.2961,0.8852l6.372,3.1769a0.66,0.66 0 0 0 0.8851,-0.2961l9.5486,-19.1516zm8.8291,9.5628l4.33,1.94a0.5,0.5 0 0 0 0.66,-0.25l3.26,-7.25a3.13,2.83 -65.8 0 0 -1.3,-4.01l-0.07,-0.04a3.13,2.83 -65.8 0 0 -3.87,1.7l-3.26,7.25a0.5,0.5 0 0 0 0.25,0.66zm2.26,5.43l-3.64,-1.62a0.87,0.87 0 0 0 -1.14,0.45l-2.49,5.59a3.05,2.78 -66 0 0 1.3,3.91l0.14,0.07a3.05,2.78 -66 0 0 3.78,-1.66l2.49,-5.59a0.87,0.87 0 0 0 -0.44,-1.15z" fill="#338fde"/>
         <path id="svg_17" d="m35.99,35.63l0.94,-0.13a1.62,1.6 19.7 0 0 0.84,-0.39q0.83,-0.74 2.07,-0.98l7.21,14.42q0.26,0.52 0.78,0.26l6.38,-3.16a0.7,0.7 0 0 0 0.32,-0.94l-7.46,-14.91q0.21,-0.29 0.57,0.08q0.4,0.4 0.77,-0.02q0.13,-0.15 0.15,-0.36q0.07,-0.71 0.67,-0.35q0.17,0.11 0.44,-0.11q0.11,-0.09 0.15,-0.22l0.55,-1.57q4.31,8.43 8.46,16.93c1.8,3.7 1.16,8.3 1.14,12.36q-0.17,-0.04 -0.31,-0.13q-0.16,-0.1 -0.26,0.06l-0.28,0.44q-0.19,0.29 -0.53,0.2q-1.16,-0.29 -2.55,0.53l0.06,-6.88q0.01,-1.55 -1.37,-0.85l-5.48,2.8q-1.37,0.69 -1.35,2.22l0.07,5.71l-3.2,-0.7q-0.23,-0.05 -0.16,0.17q0.05,0.17 -0.06,0.32q-0.15,0.21 -0.3,0q-0.13,-0.18 -0.23,-0.66c-0.02,-3.37 0.52,-7.23 -1.02,-10.26q-2.65,-5.21 -5.12,-10.12q-0.13,-0.24 -0.37,-0.12l-2.64,1.25q-0.12,0.06 -0.09,0.19q0.76,2.85 2.19,5.44c4.93,8.94 -8.04,15.85 -12.38,6.36q-3.99,-8.72 -8.1,-17.87c-2.67,-5.96 4.28,-12.32 9.92,-8.64c3.14,2.05 4.53,7.15 6.15,10.51a0.51,0.51 0 0 0 0.65,0.25l2.78,-1.13zm-11.82,5.24l4.57,-2.06a0.31,0.31 0 0 0 0.16,-0.41l-3.32,-7.36a3.16,2.7 65.7 0 0 -3.77,-1.77l-0.21,0.1a3.16,2.7 65.7 0 0 -1.16,3.99l3.32,7.36a0.31,0.31 0 0 0 0.41,0.15zm5.96,1.8l-3.93,1.78a0.66,0.66 0 0 0 -0.33,0.87l2.63,5.81a3.01,2.76 65.6 0 0 3.76,1.6l0.11,-0.05a3.01,2.76 65.6 0 0 1.27,-3.88l-2.63,-5.81a0.66,0.66 0 0 0 -0.88,-0.32z" fill="#3f83e3"/>
         <path id="svg_18" d="m67.97,50.34l0.13,17.46q0.01,1.24 1.25,1.24l5.36,0.01q1.14,0 1.16,-1.14l0.15,-8.66l0.22,0.33q0.3,0.44 0.58,-0.01q0.1,-0.17 0.29,-0.23q0.21,-0.06 0.43,-0.01q1.6,0.43 2.44,1.1l0.04,20.17q0,1.81 0.78,0.18q2.82,-5.85 9.84,-2.7q1.61,0.72 3.18,4.34q2.57,5.93 5.41,12.23a8.51,8.4 -57.3 0 1 0.74,3.51q-0.04,8.76 0.08,19.52c0.06,4.64 -2.28,8.24 -7.42,7.19q-4.71,-0.98 -4.68,-6.61q0.04,-7.93 0.06,-14.89a7.93,7.88 31.3 0 0 -0.91,-3.68q-3.54,-6.73 -6.39,-13.16q-0.64,-1.45 -0.67,0.13q-0.18,8.23 0.11,17.09c0.09,2.72 0.21,6.38 -0.98,8.78c-2.86,5.8 -10.92,6.14 -14.15,0.5q-1.03,-1.79 -1.04,-5.89q-0.08,-27.82 0.05,-55.58q0.76,0.03 1.39,-0.57q0.36,-0.34 0.85,-0.29q1.13,0.13 1.7,-0.36zm7.9244,23.7131a1.1,1.1 0 0 0 -1.1019,-1.098l-5.68,0.0099a1.1,1.1 0 0 0 -1.0981,1.1019l0.0312,17.88a1.1,1.1 0 0 0 1.1019,1.098l5.68,-0.0099a1.1,1.1 0 0 0 1.0981,-1.1019l-0.0312,-17.88zm10.7256,13.8569l3.44,-1.56a0.9,0.9 0 0 0 0.45,-1.19l-0.99,-2.17a3.11,2.65 65.6 0 0 -3.69,-1.74l-0.26,0.11a3.11,2.65 65.6 0 0 -1.13,3.93l0.99,2.18a0.9,0.9 0 0 0 1.19,0.44zm3.56,8.86a0.95,0.95 0 0 0 1.04,0.5l3.08,-0.64a0.95,0.95 0 0 0 0.68,-1.31l-2.05,-4.69a0.95,0.95 0 0 0 -1.22,-0.5l-3.13,1.24a0.95,0.95 0 0 0 -0.49,1.31l2.09,4.09zm-15.36,0.19l-5.66,0.02a1.15,1.15 0 0 0 -1.14,1.15l0.03,10.71a4.18,3.84 89.8 0 0 3.86,4.17l0.28,0a4.18,3.84 89.8 0 0 3.82,-4.19l-0.03,-10.71a1.15,1.15 0 0 0 -1.16,-1.15zm21.19,4.38a0.93,0.93 0 0 0 -1.24,-0.87l-2.12,0.74a0.93,0.93 0 0 0 -0.62,0.89l0.05,6.03a0.93,0.93 0 0 0 0.91,0.93l2.05,0.05a0.93,0.93 0 0 0 0.95,-0.92l0.02,-6.85zm-0.94,11.6l-2.3,0.06a0.82,0.82 0 0 0 -0.8,0.84l0.1,4.41a2.78,1.76 88.7 0 0 1.82,2.74l0.42,-0.01a2.78,1.76 88.7 0 0 1.7,-2.82l-0.1,-4.41a0.82,0.82 0 0 0 -0.84,-0.81zm-35.1,-56.4q0.02,25.1 0.02,50.22q0,4.64 -1.15,6.49c-2.79,4.46 -9.24,5.21 -12.74,1.23q-2.48,-2.81 -2.36,-6.89q0.31,-10.27 0.23,-20.6q-0.01,-2.16 -0.85,-0.16q-2.38,5.66 -5.43,11.3c-1.82,3.35 -1.75,7.45 -1.76,11.23l-2.99,0.26q-0.53,0.04 -0.34,-0.46q0.06,-0.13 0.01,-0.27q-0.08,-0.21 -0.3,-0.25q-0.21,-0.03 -0.47,0.24l0,-6.84q0,-0.71 -0.68,-0.89l-2.25,-0.59q-0.85,-0.22 -0.83,0.66l0.17,7.53l-4.3,0.68q-0.14,-5.29 0.1,-10.68q0.14,-3.01 1.03,-4.87q2.56,-5.39 5.08,-11.43c1.26,-3.01 3.43,-5.41 6.89,-5.5c2.63,-0.06 5.05,1.31 6.01,3.76q0.9,2.3 0.9,-0.17l0.06,-20.77q0.1,0.48 0.23,0.66q0.15,0.21 0.3,0q0.11,-0.15 0.06,-0.32q-0.07,-0.22 0.16,-0.17l3.2,0.7l0.04,7.07q0,1.3 1.31,1.3l5.39,-0.02q1.19,0 1.21,-1.19l0.12,-10.16q1.39,-0.82 2.55,-0.53q0.34,0.09 0.53,-0.2l0.28,-0.44q0.1,-0.16 0.26,-0.06q0.14,0.09 0.31,0.13zm-4.0656,17.5132a1.1,1.1 0 0 0 -1.1019,-1.0981l-5.64,0.0098a1.1,1.1 0 0 0 -1.0981,1.102l0.0312,17.8999a1.1,1.1 0 0 0 1.1019,1.0981l5.64,-0.0098a1.1,1.1 0 0 0 1.0981,-1.102l-0.0312,-17.8999zm-21.8244,12.3368l3.31,1.41a1.01,1.01 0 0 0 1.33,-0.53l0.88,-2.05a3.06,2.72 -66.8 0 0 -1.3,-3.88l-0.16,-0.07a3.06,2.72 -66.8 0 0 -3.71,1.74l-0.88,2.05a1.01,1.01 0 0 0 0.53,1.33zm-4.93,8.9a1.01,1.01 0 0 0 0.72,1.36l2.86,0.62a1.01,1.01 0 0 0 1.11,-0.54l2.01,-4a1.01,1.01 0 0 0 -0.53,-1.4l-3.02,-1.19a1.01,1.01 0 0 0 -1.3,0.56l-1.85,4.59zm25.68,1.64l-5.64,0.02a1.14,1.14 0 0 0 -1.13,1.14l0.03,10.84a4.08,3.79 89.8 0 0 3.81,4.07l0.34,0a4.08,3.79 89.8 0 0 3.77,-4.09l-0.03,-10.84a1.14,1.14 0 0 0 -1.15,-1.14zm-34.89,11.51q-1.47,-0.29 -4.17,0.4l0.05,-7.82q0,-0.59 -0.57,-0.46l-2.91,0.68l-4.25,0.73l-8.09,-16.49l0,-3.7q2.13,-3.91 4.3,-4.48c5.32,-1.4 8.07,1.39 9.99,6.06q2.2,5.38 4.54,10.29q0.8,1.7 0.9,3.86q0.25,5.8 0.21,10.93zm-13.41,-20.55l3.54,-1.55a0.84,0.84 0 0 0 0.43,-1.11l-0.95,-2.15a3.13,2.64 66.3 0 0 -3.67,-1.81l-0.24,0.11a3.13,2.64 66.3 0 0 -1.16,3.93l0.95,2.15a0.84,0.84 0 0 0 1.1,0.43zm3.66,8.87a0.9,0.9 0 0 0 0.98,0.47l3.18,-0.64a0.9,0.9 0 0 0 0.64,-1.24l-2.08,-4.76a0.9,0.9 0 0 0 -1.16,-0.47l-3.21,1.26a0.9,0.9 0 0 0 -0.47,1.24l2.12,4.14zm107.62,0.99q-1.65,3.05 -1.73,6.19q-0.18,7.02 0,14.7c0.15,6.78 -8.25,8.72 -11.35,3.38c-1.18,-2.04 -0.77,-4.83 -0.8,-7.23q-0.1,-8.71 0.08,-16.53a10.08,10.03 58.1 0 1 0.93,-4.04q2.95,-6.39 5.65,-12.63c3.99,-9.23 16.8,-3.3 12.6,5.53q-2.68,5.65 -5.38,10.63zm-3.89,-11.42l3.6,1.57a0.85,0.85 0 0 0 1.12,-0.44l1.01,-2.31a2.97,2.71 -66.4 0 0 -1.3,-3.8l-0.18,-0.08a2.97,2.71 -66.4 0 0 -3.67,1.63l-1.01,2.31a0.85,0.85 0 0 0 0.43,1.12zm-4.79,9.02a0.93,0.93 0 0 0 0.66,1.25l3.03,0.69a0.93,0.93 0 0 0 1.03,-0.5l2.07,-4.17a0.93,0.93 0 0 0 -0.5,-1.28l-3.2,-1.22a0.93,0.93 0 0 0 -1.19,0.52l-1.9,4.71zm2.84,6.76a0.95,0.95 0 0 0 -0.68,-0.9l-2.16,-0.64a0.95,0.95 0 0 0 -1.22,0.94l0.21,6.64a0.95,0.95 0 0 0 0.94,0.92l2.04,0.02a0.95,0.95 0 0 0 0.96,-0.96l-0.09,-6.02zm-0.9,10.86l-2.32,0.06a0.82,0.82 0 0 0 -0.8,0.85l0.13,4.39a2.76,1.75 88.4 0 0 1.82,2.71l0.46,-0.01a2.76,1.75 88.4 0 0 1.67,-2.81l-0.12,-4.39a0.82,0.82 0 0 0 -0.84,-0.8z" fill="#7553f3"/>
         <path id="svg_19" d="m12.34,101.24q-1.93,9.85 3.43,7.6q2.7,-0.69 4.17,-0.4q0.05,4.15 0.09,7.96q0.04,4.27 -0.87,5.84q-2.08,3.56 -6.63,2.6q-4.21,-0.9 -4.35,-5.59q-0.24,-8.59 -0.09,-17.28l4.25,-0.73zm2.73,11.71l-2.32,0.06a0.82,0.82 0 0 0 -0.8,0.84l0.11,4.41a2.75,1.72 88.5 0 0 1.79,2.71l0.52,-0.02a2.75,1.72 88.5 0 0 1.65,-2.79l-0.11,-4.41a0.82,0.82 0 0 0 -0.84,-0.8zm13.18,-4.2q1.61,0.74 3.59,0.13q0.26,-0.27 0.47,-0.24q0.22,0.04 0.3,0.25q0.05,0.14 -0.01,0.27q-0.19,0.5 0.34,0.46l2.99,-0.26q0.16,4.07 0.12,8.01q-0.03,3.85 -1.24,5.42q-2.18,2.82 -5.97,2.11q-4.64,-0.86 -4.79,-5.91q-0.14,-4.74 -0.1,-9.56l4.3,-0.68zm2.82,4.22l-2.32,0.06a0.82,0.82 0 0 0 -0.8,0.84l0.11,4.41a2.75,1.77 88.5 0 0 1.84,2.7l0.42,-0.01a2.75,1.77 88.5 0 0 1.7,-2.79l-0.11,-4.41a0.82,0.82 0 0 0 -0.84,-0.8z" fill="#9737fd"/>
        </svg>
       </g>
      </svg>
     </g>
     <!---->
    </g>
   </g>
   <g id="svg_20">
    <g id="svg_21" class="tp-name iconsvg-namesvg" data-gra="path-name">
     <g id="svg_22" transform="translate(81.0182 78.8279) scale(1 1)">
      <g id="svg_23">
       <path id="svg_24" d="m-71.72375,-5.40895l0,0q0.11,-0.05 0.31,0.02q0.2,0.05 0.22,0.15l0,0q0.01,0.1 0.44,0.18l0,0q0.09,0.03 0.15,0.09q0.07,0.07 0.03,0.12l0,0q-0.04,0.01 0.02,0.04l0,0q0,0.01 0.03,0.01l0,0q0.09,0.02 0.08,0.13q-0.02,0.12 0.06,0.12l0,0q0.1,0 0.12,0.04l0,0q0,0.04 -0.06,0.06l0,0q-0.23,0.07 -0.23,0.24l0,0q0,0.06 -0.06,0.12l0,0q-0.07,0.04 -0.34,1.14l0,0q-0.17,0.75 -0.21,1.07q-0.05,0.31 -0.05,0.78l0,0q0.02,0.48 0.1,0.64q0.08,0.17 0.32,0.3l0,0q0.23,0.11 0.75,0.11l0,0q0.66,0 0.91,-0.13q0.25,-0.13 0.48,-0.57l0,0q0.26,-0.52 0.2,-1.33l0,0q-0.03,-0.45 0.03,-0.45q0.05,0 0.06,0.19l0,0q0.04,0.19 0.06,0.33q0.03,0.14 0.06,0.23q0.02,0.09 0.02,0.09l0,0q0.03,-0.05 0.03,-0.61l0,0l0,-0.59l0.09,0.33q0.09,0.33 0.11,0.48l0,0q0.05,0.28 0.1,0.28l0,0q0.04,-0.04 0.04,-0.19l0,0l0,-0.15l0.04,0.13q0.02,0.15 0.08,0.2q0.05,0.05 0.12,0.29q0.08,0.24 0.2,0.38q0.12,0.14 0.15,0.28q0.03,0.14 0.11,0.25l0,0q0.07,0.11 0.14,0.4q0.08,0.29 0.06,0.34q-0.03,0.06 0,0.07l0,0q0.08,0.03 0.11,-0.12l0,0q0.02,-0.09 0.03,-0.24l0,0l0.04,-0.3l0.04,0.21q0.02,0.21 0,0.28q-0.04,0.08 -0.05,0.17l0,0q-0.08,0.47 -0.18,0.47l0,0q-0.08,0 -0.09,0.07l0,0q-0.05,0.1 -0.2,0.22q-0.16,0.11 -0.32,0.15l0,0l-0.02,0q0.03,-0.03 0.13,-0.09l0,0q0.23,-0.12 0.31,-0.23q0.07,-0.11 0.11,-0.16l0,0q0.17,-0.19 0.11,-0.23l0,0q-0.03,0 -0.15,0.17q-0.12,0.18 -0.17,0.17q-0.06,-0.01 -0.19,0.1q-0.13,0.12 -0.16,0.08q-0.02,-0.05 -0.15,0.02q-0.13,0.07 -0.24,0.07q-0.11,0 -0.23,0.05l0,0q-0.17,0.05 -1.08,0.16l0,0q-0.28,0.01 -0.71,-0.13q-0.42,-0.14 -0.64,-0.34l0,0q-0.09,-0.07 -0.34,-0.24l0,0q-0.82,-0.52 -1.06,-1.48l0,0q-0.07,-0.26 -0.08,-0.93q-0.01,-0.67 0.06,-1.18l0,0q0.02,-0.38 0.01,-0.41q-0.01,-0.03 -0.1,0.06l0,0q-0.09,0.08 -0.31,0.19q-0.2,0.11 -0.26,0.11l0,0q-0.08,0 -0.09,0.38q-0.02,0.39 -0.27,1.37q-0.25,0.98 -0.29,1.14l0,0q-0.05,0.27 -0.26,0.64l0,0q-0.13,0.23 -0.19,0.29q-0.06,0.06 -0.12,0.01q-0.06,-0.05 -0.15,0.09l0,0l-0.09,0.13l-0.09,-0.15q-0.28,-0.46 -0.39,-0.46l0,0q-0.05,0 -0.09,-0.09q-0.05,-0.08 -0.03,-0.14l0,0q0.03,-0.06 -0.04,-0.06q-0.07,0 -0.07,-0.11q0,-0.11 -0.07,-0.11l0,0q-0.14,0 -0.03,-0.16l0,0q0.02,-0.02 0.06,-0.04l0,0q0.08,-0.09 0.05,-0.15q-0.02,-0.06 0.09,-0.19q0.11,-0.12 0.24,-0.44q0.12,-0.32 0.14,-0.34q0.02,-0.02 0.08,-0.26l0,0l0.32,-1.48q0.05,-0.26 -0.03,-0.35q-0.08,-0.09 -0.16,-0.09l0,0q-0.07,0 -0.08,-0.02q-0.01,-0.03 0.04,-0.19l0,0q0.03,-0.09 0.02,-0.13q-0.02,-0.03 -0.13,-0.13l0,0q-0.12,-0.09 -0.14,-0.11q-0.02,-0.03 0.04,-0.11l0,0q0.03,-0.06 0.3,0.08q0.27,0.13 0.3,0.13q0.03,0 0.52,-0.29q0.5,-0.29 0.57,-0.33q0.06,-0.04 0.19,-0.12q0.13,-0.07 0.38,-0.19q0.24,-0.12 0.32,-0.19q0.07,-0.06 0.16,-0.11zm-4.01,-3.15l-0.05,-0.03l0.05,-0.06q0.01,0.02 0,0.09l0,0zm-2.14,-1.73l0,0q0.02,-0.02 0.1,-0.02q0.08,0.01 0.22,0.07q0.13,0.06 0.24,0.12l0,0q0.13,0.11 0.16,0.11q0.03,0 0.34,0.21q0.29,0.22 0.31,0.22l0,0q0.03,0 0.23,0.2q0.19,0.21 0.19,0.24l0,0q0,0.04 0.07,0.19l0,0q0.14,0.18 0.07,0.24l0,0q-0.02,0 -0.07,-0.03l0,0q-0.02,-0.01 -0.03,0.06q-0.01,0.08 -0.02,0.2q0,0.11 -0.04,0.91l0,0l-0.04,0.78l0.12,0.05q0.15,0.04 0.22,0.06l0,0q0.24,0.04 0.24,0.15l0,0q0,0.04 0.14,0.08q0.13,0.03 0.12,0.1q-0.01,0.07 0.1,0.08q0.11,0.01 0.11,-0.04q0,-0.04 0.06,-0.04l0,0q0.09,0.01 0.28,-0.03q0.2,-0.04 0.29,-0.11l0,0q0.12,-0.09 0.14,-0.09q0.02,0 0.65,-0.29q0.62,-0.29 0.73,-0.32l0,0q0.13,-0.03 0.3,-0.12q0.17,-0.09 0.17,-0.12l0,0q0,-0.05 -0.04,-0.08l0,0q-0.05,-0.03 -0.17,-0.35q-0.13,-0.32 -0.13,-0.37l0,0q0,-0.03 0.06,-0.01l0,0q0.02,0.01 0.03,-0.02l0,0q0,-0.04 -0.01,-0.07l0,0q0,-0.13 -0.06,-0.12q-0.05,0.01 -0.08,-0.11l0,0q-0.15,-0.58 -0.51,-0.94l0,0q-0.26,-0.24 -0.23,-0.33l0,0q0.02,-0.08 0.13,-0.09q0.11,-0.02 0.22,0.03l0,0q0.53,0.28 0.68,0.28l0,0q0.1,0 0.23,0.12q0.12,0.12 0.24,0.19l0,0q0.13,0.05 0.2,0.09q0.08,0.05 0.11,0.07q0.04,0.02 0.04,0.03q0,0.01 0,0.03l0,0l0.07,0.03q0.09,0 0.09,0.06q0,0.07 0.09,0.09q0.08,0.02 0.14,0.17q0.06,0.14 0.14,0.12q0.08,-0.02 0.08,0.03q0,0.05 0.09,0.14q0.09,0.09 0.08,0.26q-0.01,0.18 0.01,0.18l0,0q0.44,0.03 0.49,0.09l0,0q0.04,0.04 0,0.04q-0.04,0 0.02,0.08q0.05,0.08 0.15,0.08q0.11,0 0.11,0.04q0,0.04 0.16,0.08q0.15,0.04 0.18,0.12q0.02,0.09 0.11,0.13q0.09,0.03 0.09,0.11q0,0.08 0.09,0.16l0,0l0.12,0.06l-0.13,0.07q-0.41,0.21 -1.22,0.54l0,0q-1.08,0.41 -1.85,0.81l0,0q-0.64,0.3 -0.87,0.35q-0.22,0.04 -0.5,-0.11l0,0q-0.29,-0.13 -0.47,-0.25q-0.18,-0.12 -0.25,-0.16q-0.07,-0.02 -0.11,-0.13q-0.05,-0.1 -0.16,-0.13q-0.11,-0.02 -0.11,-0.09q0,-0.06 -0.07,-0.06q-0.07,0 -0.07,0.03q0,0.04 -0.24,0.25q-0.25,0.21 -0.23,0.24l0,0q0,0.02 -0.01,0.02q-0.01,0 -0.04,0l0,0q-0.04,-0.04 -0.15,0.03q-0.1,0.07 -0.13,0.18l0,0q-0.07,0.13 -0.07,0.71q0,0.59 0.05,0.65q0.05,0.06 0.17,0.06q0.13,0 0.16,0.08l0,0q0.04,0.17 0.12,0.07l0,0q0.03,-0.06 0.24,-0.06l0,0q0.16,0 0.2,0.02q0.02,0.01 0.02,0.12l0,0q0,0.12 0.12,0.16l0,0l0.11,0.08l-0.21,0.18q-0.21,0.18 -0.52,0.42q-0.31,0.24 -0.36,0.3q-0.07,0.07 -0.05,1.56l0,0q0,1.96 -0.14,2.25l0,0q-0.05,0.07 -0.19,0.25l0,0q-0.18,0.22 -0.2,0.49l0,0q-0.01,0.13 -0.16,0.2l0,0q-0.08,0.01 -0.15,-0.05q-0.08,-0.07 -0.08,-0.15l0,0q0,-0.03 -0.09,-0.08q-0.09,-0.05 -0.06,-0.11q0.03,-0.06 -0.03,-0.17q-0.07,-0.12 -0.14,-0.1q-0.07,0.01 -0.1,-0.04q-0.04,-0.05 -0.08,-0.17l0,0q-0.04,-0.14 -0.25,-0.5l0,0q-0.27,-0.49 -0.13,-0.55l0,0q0.06,-0.03 0.06,-0.21q0,-0.18 0.07,-0.23q0.06,-0.05 0.06,0q0,0.05 0.05,-0.01l0,0q0.01,-0.01 0.04,-0.25q0.04,-0.25 0.04,-0.45q0.01,-0.2 0,-0.21l0,0q-0.1,0 -0.37,0.37q-0.28,0.38 -0.28,0.47q0,0.08 -0.08,0.19l0,0l-0.25,0.28q-0.15,0.22 -0.25,0.23l0,0q-0.19,0.02 -0.44,-0.18l0,0q-0.06,-0.06 -0.2,-0.13l0,0q-0.38,-0.23 -0.42,-0.33l0,0q-0.03,-0.1 -0.13,-0.2l0,0q-0.09,-0.06 -0.1,-0.1q-0.01,-0.03 0.03,-0.11l0,0q0.07,-0.15 0.23,-0.2q0.15,-0.05 0.2,-0.1l0,0q0.32,-0.3 0.69,-0.6l0,0q0.1,-0.09 0.34,-0.32q0.23,-0.23 0.27,-0.23q0.03,0 0.16,-0.16q0.13,-0.14 0.18,-0.11l0,0q0.01,0 0.02,-0.02q0.02,-0.01 0.02,-0.04l0,0q0,-0.08 0.04,-0.08q0.03,0 0.21,-0.16l0,0q0.14,-0.14 0.18,-0.29q0.03,-0.15 0.06,-0.82l0,0q0.02,-0.46 0.04,-0.52q0.02,-0.07 0.01,-0.18l0,0l-0.02,-0.11l-0.24,0.16q-0.22,0.17 -0.24,0.2q-0.01,0.04 -0.07,0.04q-0.06,0 -0.06,0.03l0,0q0,0.01 -0.18,0.11q-0.18,0.09 -0.25,0.1l0,0q-0.05,0 -0.27,-0.09q-0.23,-0.09 -0.35,-0.16l0,0q-0.08,-0.05 -0.19,-0.09q-0.13,-0.03 -0.34,-0.14q-0.2,-0.1 -0.27,-0.1q-0.07,0 -0.09,-0.04q-0.03,-0.04 -0.08,-0.04q-0.05,0 -0.11,-0.09l0,0q-0.03,-0.06 0.02,-0.1q0.05,-0.05 0.16,-0.05l0,0q0.09,0 0.33,-0.14l0,0l0.4,-0.25q0.19,-0.1 0.32,-0.25q0.14,-0.16 0.2,-0.16q0.07,0 0.15,-0.08q0.08,-0.08 0.23,-0.17l0,0q0.26,-0.13 0.58,-0.34q0.31,-0.21 0.31,-0.24q0,-0.02 0.06,-0.02q0.06,0 0.04,-0.39l0,0l-0.07,-1.04q-0.09,-1.45 -0.12,-1.66q-0.03,-0.21 -0.15,-0.4l0,0q-0.17,-0.24 -0.17,-0.28zm6.81,2.11q0.05,0 0.01,-0.04q-0.03,-0.04 -0.05,-0.04q-0.02,0 -0.02,0.04q0,0.04 0.06,0.04zm15.12,6.03l0,0q0,-0.03 0.2,0.05q0.19,0.08 0.44,0.24q0.25,0.16 0.37,0.26l0,0q0.18,0.17 0.24,0.17q0.06,0 0.19,0.08q0.12,0.08 0.21,0.12q0.08,0.05 0.1,0.19q0.02,0.15 0.11,0.2q0.08,0.05 0.04,0.1q-0.03,0.06 0.05,0.07l0,0q0.1,0.03 0.15,0.09q0.05,0.06 0.02,0.1l0,0q-0.03,0.05 0.03,0.05q0.06,0 0.07,0.56q0.01,0.56 -0.06,0.6q-0.07,0.02 -0.04,0.34q0.03,0.31 -0.03,0.45l0,0l-0.04,0.13l-0.1,-0.07q-0.1,-0.09 -0.11,-0.08q-0.02,0.02 -0.18,-0.12q-0.16,-0.15 -0.25,-0.15q-0.1,0 -0.12,-0.07q-0.02,-0.08 -0.07,-0.06l0,0q-0.06,0.03 -0.09,-0.06l0,0q-0.04,-0.12 -0.06,-0.53l0,0q-0.02,-0.37 -0.05,-0.42l0,0q-0.03,-0.07 -0.04,-0.2q-0.02,-0.13 0.03,-0.14l0,0q0.08,-0.06 -0.13,-0.54l0,0q-0.07,-0.12 -0.18,-0.12q-0.13,0 -0.13,-0.07q0,-0.06 -0.18,-0.47q-0.19,-0.41 -0.29,-0.54q-0.1,-0.13 -0.1,-0.16zm-0.82,-8.65l0,0q0,-0.07 0.44,0.02l0,0q0.16,0.03 0.38,0.26l0,0q0.13,0.1 0.3,0.12l0,0l0.17,0l-0.15,0.06q-0.32,0.13 0.13,0.14l0,0q0.03,0 0.1,0l0,0l0.29,0.05q-0.1,0.03 -0.03,0.08l0,0q0.02,0.01 0.08,0.01l0,0q0.07,0 0.07,0.01q-0.01,0.02 -0.08,0.07l0,0q-0.14,0.07 -0.11,0.18q0.03,0.12 0.07,0.15l0,0q0.09,0.04 -0.05,0.09l0,0q-0.06,0.01 -0.11,0.01l0,0l-0.12,0q0.01,-0.01 0.05,-0.01l0,0q0.18,-0.09 0,-0.09l0,0q-0.05,0 -0.11,0l0,0q-0.18,0 -0.18,0.02q0,0.04 -0.14,0.09q-0.14,0.05 -0.3,0.05l0,0q-0.08,0.03 -0.15,0.09q-0.07,0.06 -0.07,0.02q0,-0.03 -0.07,0.03q-0.07,0.07 -0.11,0.05q-0.04,-0.01 -0.07,0.04q-0.02,0.04 -0.1,0.01q-0.08,-0.03 -0.08,0.04q0,0.07 -0.05,0.07l0,0q-0.11,0 0,0.07l0,0q0.03,0.02 0.09,0.03l0,0q0.14,0.06 0.18,0.17q0.04,0.12 0.17,0.16l0,0q0.08,0.03 0.24,0.17q0.14,0.15 0.14,0.21l0,0q0,0.11 -0.45,0.46l0,0q-0.06,0.06 -0.1,0.11q-0.04,0.04 -0.04,0.04l0,0q0.01,0.01 0.22,-0.01l0,0q0.24,-0.07 0.58,0.04q0.35,0.1 0.58,0.27l0,0q0.1,0.09 0.1,0.14q0,0.04 0.25,0.31q0.26,0.27 0.26,0.34q0,0.08 0.07,0.21q0.07,0.14 0.01,0.3q-0.05,0.15 -0.08,0.15q-0.03,0 -0.13,0.21q-0.1,0.21 -0.22,0.42q-0.13,0.21 -0.13,0.28l0,0q0,0.1 -0.22,0.51q-0.22,0.42 -0.26,0.42l0,0q-0.06,0.01 0,0.03l0,0q0.15,0.07 -0.07,0.16l0,0q-0.11,0.02 -0.21,0.16q-0.11,0.14 -0.11,0.22l0,0q0,0.04 -0.09,0.14q-0.09,0.1 -0.14,0.19q-0.04,0.1 -0.08,0.08q-0.04,-0.02 -0.12,0.09q-0.08,0.11 -0.15,0.09q-0.06,-0.02 -0.05,-0.16l0,0q0.03,-0.09 0.02,-0.11q-0.02,-0.01 -0.11,-0.01l0,0q-0.13,0 -0.18,-0.06l0,0q-0.08,-0.07 -0.08,-0.03l0,0q-0.01,0.04 0.09,0.17l0,0q0.11,0.16 0.11,0.24q0,0.09 -0.04,1.09q-0.05,1.01 -0.05,1.7q0,0.7 -0.05,0.95q-0.04,0.26 -0.08,0.52q-0.05,0.27 -0.11,0.51l0,0q-0.07,0.22 -0.21,0.52q-0.14,0.3 -0.17,0.3q-0.04,0 -0.1,-0.15q-0.06,-0.15 -0.14,-0.17q-0.09,-0.02 -0.15,-0.1l0,0q-0.08,-0.11 -0.19,-0.72l0,0q-0.02,-0.08 -0.07,-0.14q-0.05,-0.06 -0.02,-0.13q0.03,-0.07 -0.01,-0.07q-0.05,0 -0.02,-0.05q0.03,-0.05 -0.13,-0.19l0,0q-0.28,-0.33 -0.25,-0.37l0,0q0.02,0 0.29,0.1l0,0q0.18,0.06 0.23,0.06q0.04,0 0.13,-0.06l0,0q0.19,-0.16 0.25,-0.92l0,0q0,-0.21 0.02,-0.56q0.01,-0.35 0.01,-0.6q0,-0.25 -0.01,-0.28l0,0q0,0 -0.31,0.35q-0.3,0.35 -0.28,0.44q0.02,0.08 -0.29,0.49q-0.32,0.4 -0.5,0.66l0,0q-0.6,0.94 -0.93,1.29l0,0q-0.27,0.3 -0.31,0.3q-0.03,0 -0.15,-0.2q-0.11,-0.2 -0.24,-0.29q-0.12,-0.09 -0.14,-0.21l0,0q0,-0.06 -0.02,-0.08q-0.03,-0.02 -0.05,-0.02q-0.02,0 -0.04,-0.02q-0.01,-0.01 -0.01,-0.06l0,0q0,-0.07 0.05,-0.07q0.04,0 0.01,-0.08q-0.03,-0.08 -0.06,-0.25l0,0q-0.08,-0.29 0.24,-0.39l0,0q0.13,-0.04 0.19,-0.16q0.07,-0.11 0.15,-0.18l0,0q0.08,-0.08 0.23,-0.39q0.15,-0.3 0.15,-0.43l0,0q0,-0.13 0.08,-0.29q0.08,-0.17 0.08,-0.29l0,0q0,-0.39 0.14,-0.39l0,0q0.07,0 0.17,0.1q0.1,0.11 0.1,0.2l0,0q0,0.11 0.16,0.38l0,0l0.18,0.25l0.38,-0.36q0.39,-0.36 0.54,-0.47l0,0l0.15,-0.1l-0.14,0.12q-0.48,0.48 -0.45,0.51l0,0q0.04,0.05 0.15,-0.06q0.11,-0.11 0.11,-0.06l0,0q0,0.08 -0.17,0.27l0,0q-0.19,0.19 -0.13,0.21l0,0q0.06,0 0.42,-0.31l0,0q0.44,-0.41 0.5,-0.52q0.05,-0.11 0.07,-0.55l0,0q0.03,-0.51 -0.02,-0.62l0,0l-0.01,-0.11l-0.45,0.21q-0.43,0.18 -0.47,0.13q-0.03,-0.04 -0.12,-0.03l0,0q-0.04,0 -0.12,-0.01q-0.08,0 -0.14,-0.04q-0.05,-0.02 -0.02,-0.05l0,0q0.01,-0.03 -0.08,-0.22q-0.09,-0.19 -0.18,-0.26l0,0q-0.05,-0.08 0,-0.11l0,0q0.16,-0.06 0.08,-0.13l0,0q0,-0.04 -0.03,-0.04l0,0q-0.06,0 -0.03,-0.02q0.03,-0.03 -0.07,-0.3q-0.11,-0.26 -0.11,-0.35q0,-0.09 -0.03,-0.09l0,0q-0.06,0 -0.26,0.36q-0.21,0.36 -0.24,0.44l0,0q0,0.08 -0.08,0.23q-0.1,0.14 -0.08,0.19q0.01,0.06 0.12,-0.11l0,0l0.11,-0.15q0,0.03 -0.14,0.27l0,0q-0.35,0.65 -0.58,1.13l0,0q-0.21,0.42 -0.39,0.93l0,0q-0.29,0.86 -0.36,0.98l0,0q-0.05,0.11 -0.05,0.17l0,0q-0.02,0.04 -0.1,0.25q-0.08,0.2 -0.16,0.38q-0.08,0.18 -0.1,0.18l0,0q-0.03,-0.03 0.11,-0.32q0.13,-0.29 0.13,-0.29l0,0q-0.03,-0.02 -0.11,0.12q-0.07,0.14 -0.15,0.32q-0.09,0.17 -0.13,0.27l0,0q-0.04,0.11 -0.11,0.21q-0.07,0.09 -0.02,0.09q0.05,0 0.13,-0.18l0,0q0.01,-0.04 0.04,-0.08q0.04,-0.04 0.05,-0.05q0.01,-0.01 0.01,-0.01l0,0q0.05,0.01 -0.04,0.18q-0.09,0.18 -0.16,0.32q-0.07,0.16 -0.17,0.26l0,0l-0.12,0.09l-0.08,-0.14q-0.01,-0.04 -0.04,-0.08q-0.03,-0.03 -0.06,-0.03l0,0q-0.03,0.04 -0.15,-0.11l0,0q-0.21,-0.2 -0.36,-0.23l0,0q-0.03,0 -0.11,-0.02l0,0q-0.12,-0.08 -0.07,-0.11l0,0q0.03,-0.01 0.07,0l0,0q0.09,0.01 0.09,0q0,-0.01 -0.07,-0.24l0,0q-0.09,-0.22 -0.09,-0.27l0,0q0,-0.01 -0.01,-0.04q-0.01,-0.02 -0.03,-0.01q-0.02,0 -0.03,-0.01q0,-0.02 0.01,-0.03l0,0q0.01,-0.07 -0.05,-0.09l0,0q-0.04,-0.04 -0.03,-0.1q0.02,-0.05 0.09,-0.08l0,0q0.09,-0.03 0.21,-0.12q0.11,-0.09 0.11,-0.13l0,0q0,-0.05 0.21,-0.34q0.21,-0.29 0.21,-0.33l0,0q0,-0.06 0.13,-0.35q0.14,-0.29 0.17,-0.33l0,0q0.05,-0.05 0.05,-0.15q0,-0.11 0.04,-0.17l0,0q0.05,-0.09 0.33,-1.11l0,0q0.13,-0.52 0.18,-0.9l0,0q0.02,-0.16 0.07,-0.25l0,0q0.09,-0.15 0.29,-1.31q0.19,-1.15 0.19,-1.48l0,0q0,-0.24 -0.05,-0.37q-0.05,-0.13 -0.21,-0.33l0,0l-0.11,-0.13q0.06,0.03 0.06,-0.02q0,-0.04 -0.04,-0.04q-0.04,0 -0.26,-0.18q-0.23,-0.18 -0.38,-0.24l0,0q-0.15,-0.09 -0.14,-0.14q0.01,-0.04 0.19,-0.02l0,0q0.36,0.02 0.56,0.11q0.21,0.09 0.69,0.41l0,0q0.61,0.41 0.67,0.5q0.06,0.1 0.15,0.38l0,0q0.15,0.52 -0.05,1.49l0,0q-0.07,0.54 -0.13,0.9q-0.06,0.36 0.02,0.4q0.07,0.05 0,0.18q-0.07,0.12 -0.04,0.14l0,0q0.04,0.03 0.13,-0.08q0.09,-0.11 0.34,-0.5l0,0l0.21,-0.32l-0.02,-0.43q-0.01,-0.35 -0.12,-0.89q-0.1,-0.54 -0.19,-0.73l0,0q-0.08,-0.2 -0.02,-0.2l0,0q0.05,0 0.26,0.23l0,0l0.2,0.22l0.23,-0.18q0.25,-0.15 0.49,-0.28q0.25,-0.12 0.25,-0.17q0,-0.04 0.12,-0.2l0,0q0.21,-0.23 0.1,-0.28l0,0q-0.03,0 -0.36,0.35q-0.34,0.35 -0.34,0.28l0,0q0,-0.07 0.19,-0.33q0.18,-0.25 0.28,-0.31l0,0q0.06,-0.04 0.06,-0.1q0,-0.07 0.41,-0.49l0,0q0.8,-0.83 0.65,-0.89l0,0q-0.03,0 -0.18,0.05q-0.15,0.05 -0.15,-0.01q0,-0.05 -0.1,0.07q-0.1,0.12 -0.17,0.1q-0.08,-0.02 -0.08,0.05l0,0q0,0.06 -0.05,0.07q-0.07,0 -0.11,-0.07l0,0l-0.05,-0.06q0,0 0.02,0.09l0,0q0.03,0.09 0.02,0.11q-0.02,0.01 -0.07,0l0,0q-0.07,-0.02 -0.07,0.03l0,0q0,0.07 -0.1,0.15q-0.1,0.08 -0.2,0.1l0,0q-0.12,0.05 -0.12,0.07q0,0.02 -0.17,0.15l0,0q-0.1,0.09 -0.13,0.09q-0.03,0 -0.1,-0.02l0,0q-0.11,-0.08 -0.06,-0.08q0.06,0 0.07,-0.08l0,0q0.03,-0.04 0.01,-0.05q-0.02,-0.01 -0.08,0.01l0,0q-0.16,0.02 -0.39,-0.04q-0.25,-0.05 -0.3,-0.11l0,0q-0.09,-0.09 -0.11,-0.05q-0.02,0.05 -0.11,0.06q-0.1,0.01 -0.14,-0.05q-0.05,-0.05 -0.04,-0.11q0.02,-0.06 -0.02,-0.06l0,0q-0.1,0 -0.18,-0.1q-0.08,-0.11 -0.06,-0.18l0,0q0.03,-0.05 -0.15,-0.24q-0.17,-0.2 -0.15,-0.21q0.03,-0.02 0.79,-0.08l0,0q0.3,-0.02 0.33,-0.09l0,0q0.01,-0.07 0.15,-0.12q0.13,-0.04 0.21,-0.03l0,0q0.06,0.02 0.06,-0.05l0,0q0,-0.04 0.15,-0.1q0.15,-0.06 0.24,-0.05l0,0q0.12,0.04 0.17,-0.04l0,0q0.01,-0.09 0.15,-0.16q0.15,-0.06 0.26,-0.06l0,0q0.09,0 0.25,-0.06q0.14,-0.05 0.14,-0.1l0,0q0,-0.04 0.04,-0.02q0.04,0.02 0.05,-0.03l0,0q0.08,-0.15 0.26,-0.13l0,0q0.12,0.02 0.12,-0.05q0,-0.06 0.09,-0.06q0.09,0 0.19,-0.1q0.09,-0.1 0.15,-0.08q0.05,0.01 0.05,-0.04zm0.57,0.2l0,0q-0.02,-0.06 -0.11,0.02l0,0q-0.01,0.03 0,0.03l0,0q0.02,0 0.03,-0.02l0,0q0.08,-0.01 0.08,-0.03zm0.78,0.54q0.04,0 0.04,-0.04q0,-0.03 -0.04,-0.03q-0.05,0 -0.05,0.03q0,0.04 0.05,0.04zm-1.29,2.35l0,0q0.05,-0.02 0.06,-0.07l0,0l-0.01,-0.02q-0.02,0.02 -0.09,0.08l0,0q-0.09,0.05 -0.07,0.08q0.03,0.02 0.11,-0.07zm1,0.92l0,0q-0.03,-0.05 -0.08,-0.03q-0.05,0.02 -0.28,0.12l0,0q-0.25,0.12 -0.53,0.22q-0.28,0.1 -0.76,0.31q-0.47,0.22 -0.89,0.24q-0.41,0.01 -0.43,0.07l0,0q-0.01,0.03 0.06,0.22q0.06,0.18 0.11,0.18q0.04,0 0.63,-0.28l0,0q1.08,-0.54 1.32,-0.54l0,0q0.13,0 0.18,0.17l0,0q0.07,0.23 0.31,0.28l0,0q0.12,0.03 0.12,-0.06l0,0q0,-0.08 0.07,-0.1q0.07,-0.02 0.07,-0.12q0,-0.11 0.05,-0.23l0,0q0.15,-0.36 0.05,-0.45zm-0.71,1.92q0.04,-0.1 0.1,-0.23q0.06,-0.13 0.06,-0.13l0,0q-0.03,0 -0.62,0.35l0,0q-0.37,0.22 -0.51,0.27q-0.13,0.04 -0.43,0.06l0,0q-0.33,0.04 -0.36,-0.02q-0.03,-0.06 -0.14,-0.06l0,0q-0.06,0 -0.06,0.04q-0.01,0.04 -0.01,0.21l0,0q0,0.26 0.03,0.4l0,0l0.02,0.16l0.18,-0.09q0.14,-0.07 0.16,-0.1l0,0q0.06,-0.06 0.68,-0.37q0.61,-0.31 0.73,-0.34l0,0q0.13,-0.04 0.17,-0.15zm18.27,3.54l0,0q0.01,-0.06 0.05,-0.05q0.05,0.01 0.05,0.06q0,0.05 -0.04,0.11q-0.03,0.06 -0.06,-0.02q-0.03,-0.07 0,-0.1zm-1.82,-1.6l0.33,-0.08q0.22,-0.04 0.58,0.03q0.35,0.08 0.5,0.2l0,0q0.08,0.07 0.1,0.24q0.03,0.18 0.2,0.34l0,0q0.14,0.12 0.16,0.17q0.02,0.04 -0.04,0.16l0,0q-0.04,0.18 -0.04,0.3l0,0q0,0.06 -0.02,0.08q-0.02,0.02 -0.07,0.02q-0.05,0 -0.09,0.05q-0.05,0.05 -0.14,0.26l0,0q-0.12,0.33 -0.18,0.44q-0.06,0.13 -0.11,0.34q-0.05,0.22 -0.14,0.26l0,0q-0.05,0.05 -0.06,0.08q-0.01,0.03 0.05,0.07q0.05,0.04 0.12,0.05l0,0q0.11,0.01 0.13,0.05q0.02,0.02 0.01,0.1l0,0q-0.03,0.15 0.01,0.15q0.05,0 0.21,0.14q0.15,0.15 0.21,0.15q0.07,0 0.09,0.04q0.02,0.04 -0.04,0.04q-0.06,0 -0.09,0.1q-0.03,0.1 0.02,0.14q0.05,0.05 0.05,0.15q0,0.09 0.07,0.16l0,0q0.07,0.04 -0.03,0.05l0,0q-0.07,0 -0.15,0.02l0,0q-0.28,0.01 -0.46,0.1q-0.19,0.08 -0.29,0.03q-0.11,-0.04 -0.42,-0.03q-0.31,0.02 -0.57,0.04q-0.27,0.03 -0.26,0.04l0,0l-0.07,0.03q-0.11,0 -0.32,0.07l0,0l-0.25,0.05q0,-0.02 0.07,-0.05l0,0q0.08,-0.04 0.09,-0.05l0,0q0,0 -0.16,0.01l0,0q-0.23,0.03 -0.51,0.07q-0.29,0.03 -0.5,0.03l0,0q-0.13,0 -0.17,0.03q-0.04,0.02 -0.07,0.15l0,0q-0.06,0.16 -0.06,0.32q0,0.16 -0.01,0.16l0,0q-0.11,0 -0.32,-0.19l0,0q-0.07,-0.06 -0.16,-0.06q-0.08,0 -0.12,-0.11q-0.04,-0.12 -0.11,-0.15q-0.07,-0.02 -0.04,-0.11q0.03,-0.08 -0.17,-0.17l0,0l-0.12,-0.08l0.01,-0.01q0.08,0 0.09,-0.02q0.01,-0.03 -0.02,-0.13l0,0q-0.05,-0.11 -0.11,-0.12l0,0q-0.07,-0.02 -0.11,-0.11q-0.03,-0.09 0.02,-0.12l0,0q0.03,-0.01 -0.05,-0.12l0,0q-0.06,-0.06 -0.06,-0.13q0,-0.07 0.08,-0.07l0,0q0.03,0 0.01,-0.04q-0.01,-0.02 -0.04,-0.32l0,0q-0.14,-1.3 -0.38,-1.73l0,0q-0.11,-0.19 -0.34,-0.31q-0.23,-0.11 -0.23,-0.13q0,-0.02 0.06,-0.01q0.07,0.01 0.07,-0.01l0,0q0,-0.15 -0.2,0.07l0,0q-0.04,0.01 -0.06,0.05l0,0q-0.15,0.16 -0.2,0.16q-0.06,0 -0.06,0.07q0,0.06 -0.11,0.11q-0.11,0.05 -0.11,0.11q0,0.05 -0.05,0.05q-0.06,-0.01 -0.06,0.04q0,0.06 -0.01,0.09q-0.02,0.04 -0.02,0.11q0,0.07 -0.08,0.05q-0.08,-0.02 -0.08,0.02l0,0q0,0.04 0.07,0.06q0.07,0.03 0.11,-0.02l0,0q0.04,-0.04 0.07,0.01q0.02,0.05 0.06,0.04l0,0q0.02,-0.02 0.02,0l0,0q0,0.01 -0.02,0.03l0,0q-0.01,0.07 -0.05,0.07q-0.05,0 -0.02,-0.04q0.03,-0.05 -0.02,-0.05q-0.04,0 -0.04,0.1q0,0.1 -0.12,0.22l0,0q-0.11,0.1 -0.08,0.12l0,0q0.02,0.01 0.1,-0.05l0,0l-0.03,0.05q-0.08,0.05 -0.1,0.15q-0.01,0.09 -0.1,0.1l0,0q-0.21,0.03 -0.12,0.15l0,0q0.06,0.06 -0.07,0.12q-0.12,0.06 -0.12,0.23q0,0.17 -0.13,0.27q-0.11,0.08 -0.11,0.18q0,0.08 -0.07,0.17l0,0q-0.05,0.08 -0.01,0.11l0,0q0.03,0.01 0.15,-0.08l0,0l0.04,-0.03q0,0.02 -0.04,0.12l0,0q-0.09,0.15 -0.12,0.15q-0.03,0 -0.03,0.07q0,0.05 -0.32,0.33q-0.31,0.28 -0.44,0.24q-0.13,-0.03 -0.16,-0.06q-0.03,-0.02 -0.13,-0.08q-0.1,-0.06 -0.16,-0.09l0,0l-0.36,-0.21q-0.28,-0.17 -0.36,-0.24q-0.1,-0.08 -0.13,-0.08q-0.04,0 -0.17,-0.13q-0.12,-0.14 -0.24,-0.17l0,0q-0.16,-0.02 -0.16,-0.06l0,0q0,-0.02 0.06,-0.07l0,0l0.11,-0.05l-0.14,-0.06q-0.1,-0.02 -0.11,-0.04q0,-0.02 0.04,-0.08l0,0q0.07,-0.05 0.29,-0.14q0.22,-0.08 0.34,-0.08l0,0q0.11,0 0.37,-0.16q0.26,-0.15 0.49,-0.36l0,0q0.19,-0.19 0.97,-0.75q0.78,-0.56 1.08,-0.72l0,0l1.32,-0.71q-0.11,0.09 -0.1,0.11q0.01,0.02 0.13,0.01l0,0q0.14,-0.03 0.4,0.03q0.26,0.06 0.39,0.14l0,0l0.16,0.11l0.56,-0.16q0.56,-0.15 0.95,-0.27l0,0q1,-0.33 1.5,-0.43l0,0zm-4.73,1.03q0.06,0 0.09,-0.04q0.04,-0.05 -0.01,-0.05l0,0q-0.03,0.02 -0.09,0.05l0,0q-0.06,0.04 0.01,0.04zm4.54,0.88q0.12,-0.26 0.12,-0.42q0,-0.16 -0.06,-0.16q-0.05,0 -0.74,0.23l0,0q-1.03,0.34 -1.39,0.34l0,0q-0.16,0 -0.16,0.06q-0.01,0.06 0.08,0.41l0,0q0.03,0.19 0.05,0.43l0,0q0.04,0.42 0.16,0.42l0,0q0.04,0 0.38,-0.09q0.34,-0.09 0.72,-0.17q0.37,-0.07 0.42,-0.11q0.04,-0.05 0.18,-0.3q0.13,-0.26 0.13,-0.32l0,0q0,-0.06 0.11,-0.32zm-5.25,0.2q0.04,0 0.02,-0.04q-0.03,-0.05 -0.04,-0.05q-0.01,0 -0.01,0.05q0,0.04 0.03,0.04zm-0.21,0.23q0.04,0 0.06,-0.05q0.02,-0.04 -0.04,-0.04q-0.07,0 -0.07,0.04q0,0.05 0.05,0.05zm4.91,2.2q0.03,-0.03 0.03,-0.04q0,-0.02 -0.03,-0.02q-0.04,0 -0.04,0.05q0,0.04 0.04,0.01zm-5.83,-11.62q0.06,-0.06 0.25,-0.09q0.2,-0.02 0.23,-0.02l0,0q0.05,-0.01 0.42,0.15q0.38,0.17 0.45,0.25l0,0q0.12,0.09 0.28,0.37q0.16,0.27 0.16,0.38l0,0q0,0.13 0.03,0.22l0,0q0.03,0.05 0.03,0.05q0.01,0 0.05,-0.09l0,0q0.24,-0.59 0.23,-0.91l0,0q-0.02,-0.18 0.02,-0.22q0.04,-0.04 0.31,-0.09l0,0q0.16,-0.04 0.22,-0.03q0.05,0.01 0.14,0.1l0,0q0.12,0.11 0.29,0.2l0,0q0.43,0.2 0.53,0.66l0,0q0.09,0.38 -0.1,0.62l0,0q-0.11,0.13 -0.11,0.17q0,0.05 -0.12,0.05q-0.13,0 -0.22,0.13q-0.09,0.14 -0.09,0.18l0,0q0,0.11 -0.26,0.65q-0.27,0.54 -0.37,0.65q-0.11,0.12 -0.11,0.16q0,0.03 -0.05,0.07l0,0q-0.05,0.03 -0.15,0.24q-0.11,0.21 -0.11,0.26l0,0q0,0.04 -0.05,0.04q-0.04,0 -0.04,0.09q0,0.09 -0.06,0.11q-0.06,0.03 -0.04,0.07q0.03,0.04 -0.11,0.2q-0.14,0.15 -0.29,0.44q-0.14,0.29 -0.41,0.68q-0.26,0.39 -0.24,0.41q0.02,0.01 0.4,-0.23q0.37,-0.24 0.53,-0.36q0.16,-0.12 0.31,-0.21l0,0l0.13,-0.07l-0.04,0.1q-0.04,0.11 -0.14,0.23l0,0q-0.07,0.09 -0.05,0.1q0.01,0.02 0.16,-0.08l0,0q0.06,-0.04 0.05,-0.01l0,0q-0.02,0.03 -0.11,0.13l0,0q-0.15,0.2 -0.21,0.31q-0.06,0.11 -0.12,0.18q-0.06,0.05 -0.05,0.13q0.02,0.08 -0.09,0.2l0,0q-0.15,0.19 -0.09,0.18l0,0q0.05,0 0.08,-0.04l0,0q0.18,-0.16 0.18,-0.1l0,0q-0.03,0.03 -0.06,0.06l0,0q-0.03,0.1 0,0.1l0,0q0.08,-0.02 0.06,0.02l0,0q0,0.06 -0.11,0.18l0,0q-0.11,0.12 -0.14,0.28q-0.02,0.17 -0.05,0.17q-0.03,0 -0.13,0.2q-0.11,0.19 -0.4,0.38l0,0q-0.29,0.2 -0.73,0.42q-0.44,0.22 -0.51,0.22l0,0q-0.06,0 -0.11,0.06l0,0q-0.18,0.21 -0.41,-0.03l0,0q-0.16,-0.17 -0.29,-0.19q-0.13,-0.02 -0.16,-0.13q-0.02,-0.1 -0.08,-0.12q-0.06,-0.02 -0.06,-0.13q0,-0.11 -0.11,-0.24q-0.1,-0.14 -0.12,-0.32q-0.02,-0.18 -0.09,-0.43q-0.05,-0.26 0.03,-0.36q0.08,-0.09 0.21,-0.06l0,0q0.1,0.02 0.16,-0.01q0.07,-0.04 0.25,-0.2l0,0q0.26,-0.27 0.34,-0.41l0,0q0.14,-0.24 0.36,-0.54l0,0q0.25,-0.32 0.38,-0.57l0,0q0.41,-0.63 0.31,-0.71l0,0q-0.02,-0.02 -0.13,-0.02l0,0q-0.18,-0.03 -0.45,-0.05l0,0q-0.21,-0.03 -0.56,-0.1q-0.36,-0.06 -0.41,-0.09l0,0q-0.05,-0.02 -0.03,-0.07q0.01,-0.04 0.07,-0.04l0,0q0.07,0 -0.02,-0.04q-0.1,-0.03 -0.1,-0.08q0,-0.05 -0.12,-0.05l0,0q-0.18,0 -0.21,-0.08l0,0q0,-0.06 0.05,-0.08l0,0q0.18,-0.06 -0.06,-0.12l0,0q-0.28,-0.05 -0.07,-0.24l0,0q0.13,-0.12 0.17,-0.24l0,0q0.01,-0.09 0.22,-0.32q0.2,-0.22 0.35,-0.33l0,0q0.14,-0.07 0.56,-0.62q0.43,-0.56 0.61,-0.88l0,0q0.13,-0.25 0.14,-0.37q0.01,-0.12 -0.13,-0.24l0,0q-0.13,-0.12 -0.07,-0.19zm1.51,2.05l0,0q0.28,-0.51 0.14,-0.48l0,0q-0.03,0 -0.04,0.02l0,0q-0.07,0.03 -0.13,0.16q-0.05,0.13 -0.09,0.13q-0.04,0 -0.14,0.18q-0.1,0.19 -0.19,0.22q-0.1,0.02 -0.15,0.14q-0.05,0.12 -0.16,0.31l0,0q-0.17,0.23 0.11,0.23l0,0q0.1,0 0.14,0.04q0.05,0.03 0.2,-0.25q0.15,-0.28 0.15,-0.32q0,-0.04 0.16,-0.38zm3.49,-2.61l0,0q0.04,-0.03 0.3,0.02q0.27,0.06 0.48,0.15q0.22,0.09 0.22,0.18q0,0.09 0.2,0.3l0,0q0.13,0.14 0.17,0.22q0.03,0.07 0.02,0.23l0,0q0,0.24 0.01,0.26l0,0q0.02,0.09 0,0.2q-0.01,0.11 -0.07,0.11l0,0q-0.12,0 -0.12,0.62l0,0q-0.01,0.5 0.04,0.5q0.05,0 0.2,-0.06l0,0q0.33,-0.13 0.67,-0.02l0,0q0.31,0.11 0.35,0.32l0,0q0.01,0.12 0.12,0.2q0.11,0.07 0.1,0.24q-0.01,0.18 -0.05,0.27q-0.03,0.1 0.07,0.18q0.11,0.09 0.14,0.09q0.04,0 0.04,0.05q0,0.05 0.06,0.11l0,0q0.06,0.03 0.06,0.05q0,0.01 -0.08,0.01l0,0q-0.07,0 -0.46,0.12q-0.39,0.12 -0.4,0.09l0,0q-0.05,-0.1 -0.1,0l0,0q-0.01,0.02 -0.01,0.03l0,0q-0.01,0.09 -0.28,0.18q-0.26,0.09 -0.31,0.12q-0.05,0.03 -0.08,0.35q-0.02,0.32 -0.07,0.35q-0.04,0.02 -0.04,0.07q0,0.04 0.04,0.02q0.03,-0.01 0.45,0.05q0.41,0.06 0.48,0.15q0.07,0.09 0.05,0.14q-0.02,0.06 0.13,0.21q0.15,0.16 0.2,0.41q0.04,0.25 0.06,0.37l0,0q0.05,0.09 0.02,0.09q-0.02,0.01 -0.13,0l0,0q-0.15,-0.02 -0.89,0.19q-0.74,0.21 -1.3,0.41l0,0q-0.47,0.19 -0.72,0.23q-0.24,0.05 -0.55,-0.01l0,0q-0.34,-0.05 -0.4,-0.09q-0.05,-0.04 -0.09,-0.03l0,0q-0.03,0 -0.06,-0.01q-0.02,-0.02 -0.02,-0.05l0,0q0,-0.09 -0.12,-0.13q-0.12,-0.03 -0.2,-0.12q-0.09,-0.08 -0.17,-0.08q-0.1,0 -0.1,-0.03q0,-0.03 -0.02,-0.1q-0.02,-0.06 0.04,-0.06l0,0q0.12,0 0.01,-0.11l0,0q-0.03,-0.03 -0.08,-0.05l0,0q-0.11,-0.05 -0.06,-0.12q0.06,-0.07 0.11,-0.07q0.07,0 0.09,-0.06q0.02,-0.06 0.16,-0.06l0,0q0.19,0 1.15,-0.37l0,0q0.42,-0.14 0.49,-0.19q0.07,-0.04 0.05,-0.14l0,0q-0.01,-0.12 -0.05,-0.12l0,0q-0.04,0 -0.05,-0.04q0,-0.04 0.01,-0.07q0.01,-0.03 0.04,-0.05l0,0q0.05,0 0.05,-0.21l0,0q0.02,-0.13 -0.01,-0.17q-0.02,-0.04 -0.12,-0.05l0,0q-0.14,-0.06 -0.14,-0.09q0,-0.03 -0.1,-0.03q-0.11,0 -0.14,-0.04q-0.03,-0.04 -0.17,-0.06l0,0q-0.15,-0.02 -0.41,-0.15q-0.28,-0.14 -0.41,-0.23l0,0q-0.13,-0.1 -0.2,-0.14q-0.07,-0.04 -0.24,-0.14q-0.18,-0.11 -0.1,-0.11l0,0q0.12,0 0.12,-0.04q0,-0.05 -0.1,-0.08l0,0q-0.35,-0.06 0.18,-0.18l0,0q0.11,-0.04 0.26,-0.08l0,0q0.54,-0.08 0.77,-0.19l0,0q0.8,-0.35 0.88,-0.35l0,0q0.06,0 0.05,-1.71l0,0q0,-0.22 -0.05,-0.68q-0.04,-0.47 -0.07,-0.53l0,0q-0.05,-0.12 -0.13,-0.17q-0.1,-0.05 -0.02,-0.11q0.07,-0.05 0.18,-0.06q0.1,0 0.17,-0.05zm14.22,6.65l0,0q0,-0.14 0.22,-0.02l0,0q0.09,0.05 0.26,0.05l0,0q0.25,-0.02 0.25,0.21l0,0q0,0.05 0.15,0.17l0,0q0.19,0.14 0.5,0.44q0.31,0.3 0.31,0.36l0,0q0,0.06 0.06,0.11q0.06,0.04 -0.03,0.23q-0.09,0.19 -0.12,0.21q-0.03,0.02 -0.06,0.1q-0.03,0.09 -0.12,0.11q-0.09,0.02 -0.09,0.06q0,0.03 -0.05,0.03q-0.05,0 -0.13,0.06l0,0q-0.08,0.08 -0.26,0.37q-0.19,0.3 -0.19,0.33l0,0q0,0.04 -0.14,0.23q-0.14,0.19 -0.14,0.2q0,0.02 0.26,0.21l0,0q0.44,0.36 0.44,0.72l0,0q0,0.11 0.05,0.18q0.04,0.07 -0.02,0.15l0,0q-0.06,0.03 -0.23,0.05q-0.17,0.03 -0.21,-0.02l0,0q-0.01,-0.01 -0.23,0.02q-0.22,0.04 -0.32,0.07l0,0q-0.07,0.02 -0.31,0.02q-0.25,0.01 -0.39,0.06q-0.14,0.04 -0.58,0.14q-0.45,0.09 -0.63,0.15q-0.19,0.06 -0.43,0.03l0,0l-0.22,-0.04l0.03,0.19q0.01,0.17 -0.06,0.2q-0.07,0.03 -0.07,0.21q0,0.18 -0.03,0.18q-0.04,0 -0.26,-0.21l0,0l-0.47,-0.44q-0.18,-0.14 -0.23,-0.22q-0.05,-0.08 -0.07,-0.21l0,0q-0.08,-0.4 -0.19,-0.89l0,0q-0.04,-0.14 -0.13,-0.74q-0.1,-0.59 -0.15,-0.75l0,0q-0.07,-0.26 -0.33,-0.51q-0.25,-0.26 -0.57,-0.35l0,0q-0.03,-0.03 -0.03,-0.03l0,0q0.16,-0.01 0.03,-0.09l0,0q-0.03,-0.01 -0.1,-0.03l0,0q-0.09,-0.03 -0.09,-0.06l0,0q0.06,-0.06 0.03,-0.11q-0.03,-0.05 0.09,-0.08l0,0q0.43,-0.12 1.1,0.1l0,0q0.04,0 0.07,0.03l0,0q0.32,0.11 0.37,0.15l0,0q0.08,0.06 0.89,-0.31l0,0q0.61,-0.3 1.03,-0.46q0.43,-0.16 0.49,-0.19q0.07,-0.03 0.28,-0.08l0,0q0.27,-0.02 0.52,-0.13q0.25,-0.1 0.25,-0.16zm-0.41,1.66l0,0q0,-0.02 -0.03,-0.02q-0.03,-0.01 -0.1,0q-0.07,0 -0.12,0.04l0,0l-0.84,0.38q-0.75,0.35 -0.93,0.4q-0.17,0.06 -0.21,0.09q-0.04,0.03 0.03,0.26q0.07,0.23 0.1,0.49q0.03,0.25 0.08,0.25q0.04,0 0.61,-0.15q0.57,-0.15 0.75,-0.18l0,0q0.12,-0.02 0.15,-0.05q0.03,-0.03 0.03,-0.13l0,0q0,-0.14 0.14,-0.39l0,0q0.09,-0.18 0.21,-0.54q0.13,-0.36 0.13,-0.45zm-2.24,-7.57q-0.07,-0.04 -0.02,-0.12q0.06,-0.08 0.13,-0.06l0,0q0.07,0 0.33,0.12q0.25,0.13 0.3,0.21l0,0q0.09,0.07 0.13,0.07q0.05,0 0.2,0.12l0,0l0.21,0.18q0.16,0.14 0.03,0.5l0,0q-0.07,0.21 -0.05,0.22l0,0q0.39,0.29 1.88,1.4l0,0q0.33,0.24 0.71,0.56l0,0q0.7,0.62 1.5,0.87l0,0q0.33,0.13 0.67,0.3q0.34,0.17 0.4,0.17q0.05,0 0.25,0.16q0.2,0.17 0.32,0.23q0.11,0.06 0.28,0.21q0.17,0.15 0.25,0.29l0,0q0.09,0.09 0.03,0.25l0,0q-0.03,0.14 -0.15,0.19q-0.12,0.05 -0.44,0.07q-0.32,0.03 -0.35,0.04l0,0q-0.25,0.17 -1.43,-0.18l0,0l-0.43,-0.12l-0.83,-0.79q-0.81,-0.78 -0.98,-0.95l0,0q-0.42,-0.45 -1.09,-0.97l0,0q-0.1,-0.09 -0.54,-0.57l0,0l-0.42,-0.48l-0.24,0.4l-0.53,0.93l-0.4,0.7q-0.11,0.17 -0.4,0.68l0,0q-0.11,0.12 -0.18,0.24q-0.07,0.12 -0.1,0.19q-0.03,0.06 -0.03,0.08l0,0q0.1,0.02 0.97,-0.41q0.88,-0.43 0.94,-0.52l0,0q0.03,-0.07 0.37,-0.1q0.33,-0.02 0.75,0.13l0,0q0.65,0.24 0.62,0.36l0,0q-0.08,0.03 -0.07,0.09q0.01,0.06 0.07,0.11l0,0q0.06,0.06 0,0.09q-0.06,0.04 -0.04,0.08q0.03,0.04 -0.04,0.06q-0.06,0.02 -0.06,0.07q0,0.06 -0.4,0.28l0,0l-0.72,0.4q-0.32,0.17 -0.75,0.3l0,0q-0.3,0.11 -0.39,0.12q-0.09,0 -0.21,-0.02l0,0q-0.16,-0.07 -0.33,-0.1q-0.17,-0.02 -0.4,-0.13q-0.23,-0.1 -0.29,-0.17q-0.06,-0.07 -0.14,-0.07q-0.09,0 -0.19,-0.05l0,0q-0.05,-0.04 -0.09,-0.01q-0.04,0.03 -0.17,0.17l0,0q-0.16,0.22 -0.45,0.5q-0.3,0.29 -0.7,0.74l0,0q-0.82,0.96 -1.17,1.16l0,0q-0.13,0.06 -0.17,-0.02q-0.04,-0.07 -0.03,-0.11q0.01,-0.04 -0.14,-0.27q-0.14,-0.23 -0.14,-0.28q0,-0.05 -0.04,-0.05q-0.05,0 -0.1,-0.11q-0.06,-0.11 0.01,-0.13q0.07,-0.02 0.06,-0.28l0,0q-0.03,-0.45 0.18,-0.49l0,0q0.07,-0.05 0.13,-0.15q0.06,-0.09 0.12,-0.09q0.06,0 0.21,-0.23q0.15,-0.23 0.39,-0.46q0.24,-0.23 0.24,-0.26q0,-0.03 0.13,-0.14q0.13,-0.12 0.13,-0.17q0,-0.05 0.15,-0.19q0.16,-0.14 0.16,-0.19q0,-0.04 0.11,-0.14q0.12,-0.1 0.12,-0.14q0,-0.04 0.12,-0.24q0.13,-0.2 0.19,-0.25q0.06,-0.05 0.06,-0.11q0,-0.06 0.04,-0.06q0.05,0 0.1,-0.14q0.06,-0.13 0.11,-0.18q0.05,-0.04 0.39,-0.66l0,0l0.83,-1.45q0.41,-0.7 0.5,-0.94q0.1,-0.24 0.02,-0.29l0,0zm17.57,10.56l0,0l0.01,-0.04l0.07,0.04q-0.04,0.01 -0.08,0zm-1.61,-7.36l0,0q0.11,-0.05 0.12,-0.02l0,0q0,0 -0.01,0.02l0,0q-0.02,0.05 -0.1,0.05q-0.08,0 -0.01,-0.05zm-4.22,-0.77l0,0q0,-0.2 0.55,0.09l0,0q0.22,0.13 0.66,0.4l0,0q0.6,0.36 0.86,0.64q0.27,0.28 0.32,0.59l0,0q0.03,0.2 0.05,0.21q0.01,0.01 0.4,0.05l0,0q0.56,0.03 1.05,0.18l0,0q0.22,0.06 0.25,0.04l0,0q0.07,-0.07 0.55,-1.02l0,0q0.21,-0.41 0.15,-0.5q-0.06,-0.08 0,-0.12q0.06,-0.04 -0.04,-0.13l0,0q-0.1,-0.06 -0.08,-0.14q0.01,-0.08 0.12,-0.08l0,0q0.08,0 0.15,-0.06q0.07,-0.05 0.39,0.15q0.31,0.21 0.44,0.32q0.13,0.11 0.25,0.15l0,0q0.12,0.08 0.26,0.24q0.14,0.16 0.19,0.28q0.04,0.12 -0.15,0.55q-0.2,0.43 -0.31,0.64l0,0q-0.17,0.26 -0.15,0.35q0.03,0.09 0.29,0.36l0,0q0.33,0.35 0.59,0.69l0,0q0.18,0.26 0.2,0.33q0.02,0.08 0.01,0.18l0,0q-0.06,0.15 -0.01,0.23q0.06,0.07 0.02,0.21q-0.04,0.15 0.11,0.37l0,0q0.35,0.53 0.32,0.57l0,0q0,0.02 -0.03,-0.01q-0.04,-0.03 -0.06,-0.07q-0.02,-0.04 -0.07,-0.09l0,0l-0.13,-0.17l0,0.15q-0.01,0.13 -0.04,0.13l0,0q0,0 -0.03,-0.01l0,0q-0.07,-0.05 -0.07,0.03l0,0q0,0.12 -0.09,0.07l0,0q-0.03,-0.01 -0.13,-0.09l0,0q-0.17,-0.13 -0.44,-0.32q-0.28,-0.17 -0.31,-0.17l0,0q-0.06,0 -0.19,-0.13q-0.13,-0.13 -0.41,-0.32q-0.28,-0.2 -0.41,-0.34l0,0l-0.11,-0.11l-0.14,0.16q-0.12,0.18 -0.12,0.2q0,0.03 -0.1,0.17q-0.11,0.14 -0.17,0.27q-0.06,0.13 -0.3,0.44l0,0l-0.3,0.39q-0.07,0.11 -0.49,0.29l0,0q-0.17,0.06 -0.19,0.06q-0.02,0 -0.02,-0.11l0,0q0,-0.1 0.04,-0.1q0.04,0 0.04,-0.04q0,-0.04 -0.08,-0.04q-0.09,0 -0.09,-0.08q0,-0.07 -0.12,-0.17q-0.11,-0.11 -0.17,-0.29l0,0q-0.03,-0.08 -0.06,-0.11q-0.03,-0.04 -0.04,-0.03q0,0 -0.03,-0.01q-0.03,-0.01 -0.03,-0.06l0,0q-0.04,-0.1 0.06,-0.15l0,0q0.04,-0.06 0.07,-0.18q0.03,-0.12 -0.03,-0.16l0,0q-0.03,-0.06 0,-0.3l0,0q0,-0.04 0.06,-0.04l0,0q0.12,0 0.18,-0.22l0,0q0.02,-0.11 0.21,-0.32l0,0q0.15,-0.16 0.29,-0.41q0.14,-0.25 0.13,-0.32l0,0q-0.03,-0.06 -0.29,-0.15q-0.25,-0.09 -0.34,-0.09l0,0q-0.06,0 -0.05,0.12l0,0q0.03,0.12 0,0.12l0,0l-0.07,-0.09q0,-0.03 -0.02,-0.06l0,0q-0.03,-0.16 -0.09,-0.16q-0.07,0 -0.13,0.42l0,0q-0.14,1.06 -0.14,1.84l0,0q-0.01,0.51 -0.04,0.72q-0.03,0.21 0.01,0.21l0,0q0.03,0 0.03,0.1q0,0.11 -0.03,0.14l0,0q-0.02,0.02 -0.03,0.16q-0.01,0.14 -0.01,0.27q0,0.13 0.02,0.13l0,0q0.04,0 0.64,-0.12l0,0q1.19,-0.21 1.77,-0.24l0,0q0.33,-0.02 0.37,-0.05q0.04,-0.03 0.36,-0.05q0.33,-0.02 0.36,-0.05q0.02,-0.02 0.38,-0.04q0.36,-0.02 0.41,-0.07q0.06,-0.05 0.39,0.01q0.34,0.05 0.43,-0.02l0,0q0.14,-0.14 0.39,0l0,0q0.13,0.07 0.22,0.08q0.08,0.01 0.21,0.1q0.12,0.1 0.2,0.1l0,0q0.11,0 0.47,0.41q0.36,0.42 0.58,0.79l0,0q0.09,0.15 0.03,0.25q-0.06,0.09 -0.05,0.14l0,0q0.02,0.11 -0.05,0.12q-0.06,0.01 -0.36,0l0,0q-0.83,-0.05 -1.01,-0.09l0,0q-0.11,-0.02 -0.2,0.03q-0.1,0.05 -0.21,-0.01q-0.11,-0.06 -0.38,-0.06q-0.26,0.01 -0.76,0.04l0,0l-0.31,0l0.01,0q0.21,-0.02 0.21,-0.1l0,0q0,-0.08 -0.09,-0.09q-0.1,-0.01 -0.61,0.01l0,0q-0.71,0.04 -0.97,0.08q-0.26,0.02 -0.3,0.01q-0.03,-0.01 -0.09,0.03q-0.05,0.04 -0.23,0.06l0,0q-0.98,0.13 -1.31,0.24l0,0q-0.12,0.03 -0.23,0.07l0,0q-0.06,0.02 -0.09,0.04q-0.02,0.01 -0.02,0.02l0,0q0.03,0.06 0.12,0.02l0,0q0.09,-0.02 0.17,-0.03q0.08,-0.01 0.15,-0.01q0.06,0.01 0.06,0.02l0,0q0,0.05 -0.03,0.05q-0.03,0 -0.34,0.07q-0.31,0.06 -0.66,0.11q-0.36,0.04 -0.46,0.07q-0.1,0.02 -0.47,-0.34q-0.37,-0.36 -0.53,-0.45q-0.17,-0.09 -0.26,-0.19l0,0q-0.05,-0.05 -0.06,-0.12q-0.01,-0.07 -0.01,-0.11q0.01,-0.04 0.04,-0.04q0.03,0 0.03,-0.04q0,-0.02 -0.02,-0.06q-0.01,-0.04 -0.04,-0.08l0,0q-0.06,-0.05 -0.06,-0.14l0,0q0,-0.1 0.1,-0.25q0.11,-0.14 0.18,-0.15l0,0q0.11,-0.03 0.2,-0.16l0,0q0.09,-0.07 0.11,-0.27q0.01,-0.21 0.07,-1.26l0,0q0.15,-2.85 0.04,-3.35l0,0q-0.03,-0.23 -0.46,-1.02l0,0q-0.24,-0.45 -0.24,-0.49q0,-0.04 -0.07,-0.1q-0.06,-0.06 -0.06,-0.16zm5.89,-2.12l0,0q0.51,-0.03 0.54,0.07l0,0q0.01,0.04 0.07,0.04l0,0q0.09,0 0.48,0.24l0,0q0.11,0.04 0.23,0.18q0.12,0.13 0.13,0.17q0,0.03 0.1,0.2l0,0q0.13,0.21 0.02,0.35q-0.12,0.14 -0.55,0.28l0,0q-1.05,0.39 -1.49,0.57l0,0q-0.17,0.09 -0.26,0.09q-0.1,0 -0.43,0.12q-0.32,0.12 -0.45,0.15q-0.13,0.03 -0.3,0.12q-0.17,0.09 -0.33,0.12q-0.16,0.03 -0.2,0.07q-0.05,0.03 -0.14,-0.09q-0.09,-0.13 -0.14,-0.13l0,0q-0.06,0 -0.41,-0.2q-0.35,-0.21 -0.51,-0.32q-0.16,-0.13 -0.2,-0.13l0,0q-0.06,0 -0.19,-0.12q-0.13,-0.13 -0.13,-0.17l0,0q0,-0.05 -0.06,-0.05l0,0q-0.1,0 -0.04,-0.1l0,0q0.01,-0.05 0.07,-0.07l0,0q0.11,-0.02 0.47,-0.02l0,0q0.27,-0.02 0.42,-0.07q0.15,-0.04 0.64,-0.25l0,0q0.89,-0.37 1.22,-0.5l0,0l0.51,-0.2q0.3,-0.11 0.33,-0.11l0,0q0.03,0 0.19,-0.07q0.16,-0.08 0.17,-0.12l0,0q0.04,-0.03 0.24,-0.05zm17.49,-1.05l0.12,-0.05q0.14,-0.05 0.42,0l0,0q0.47,0.11 0.8,0.4l0,0q0.07,0.09 0.2,0.12q0.14,0.04 0.22,0.2q0.08,0.16 0.31,0.34l0,0q0.31,0.25 0.35,0.67l0,0q0.01,0.18 -0.06,0.23q-0.07,0.04 -0.07,0.09q0,0.06 -0.08,0.11q-0.08,0.07 -0.25,-0.05q-0.17,-0.11 -0.25,-0.11q-0.08,0 -0.17,-0.09l0,0q-0.1,-0.06 -0.2,-0.08q-0.11,-0.01 -0.14,0.05l0,0q-0.05,0.03 -0.18,-0.05q-0.14,-0.09 -0.17,-0.06q-0.03,0.02 -0.09,-0.03q-0.05,-0.05 -0.01,-0.26q0.04,-0.21 -0.06,-0.33l0,0q-0.35,-0.44 -0.45,-0.66l0,0q-0.06,-0.16 -0.15,-0.3l0,0l-0.09,-0.14zm-3.88,-0.58l0,0q0.25,-0.05 0.67,0.18l0,0q0.47,0.24 0.78,0.79l0,0q0.18,0.3 0.39,1.19l0,0q0.06,0.16 0.08,0.2q0.02,0.04 0.1,0.02l0,0q0.09,-0.03 0.15,-0.09l0,0q0.09,-0.09 0.52,-0.08q0.44,0.01 0.53,0.1l0,0q0.08,0.09 0.2,0.12q0.11,0.04 0.09,0.12q-0.02,0.07 0.02,0.07l0,0q0.02,0 0.03,0.02q0,0.03 0,0.06q-0.01,0.04 -0.04,0.06l0,0q-0.03,0.01 0.04,0.11l0,0q0.1,0.1 0.05,0.14q-0.05,0.05 -0.3,0.15l0,0q-0.33,0.13 -0.66,0.32q-0.33,0.19 -0.33,0.25l0,0q0,0.06 0.14,0.56q0.15,0.51 0.21,0.66l0,0q0.02,0.09 0.17,0.55l0,0q0.35,1.04 0.52,1.08l0,0q0.2,0.09 0.26,0.06q0.05,-0.03 0.14,-0.33l0,0q0.1,-0.36 0.17,-0.75q0.07,-0.39 0.14,-0.71q0.07,-0.31 0.07,-0.47q0,-0.15 0.1,-0.18q0.1,-0.03 0.17,-0.08l0,0q0.04,-0.07 0.1,-0.05q0.06,0.02 0.25,0.17l0,0q0.23,0.19 0.36,0.27q0.13,0.08 0.38,0.34l0,0q0.21,0.23 0.22,0.34q0,0.12 -0.16,0.81l0,0l-0.28,1.08q-0.14,0.61 -0.68,1.73l0,0q-0.18,0.4 -0.18,0.51q0,0.11 0.15,0.46l0,0l0.09,0.18l-0.02,-0.23l0,-0.19q0,0 0.05,0.09l0,0q0.06,0.13 0.13,0.13q0.07,0 0.07,0.05q0,0.06 0.05,0.03q0.06,-0.03 0.06,0.04l0,0q0,0.09 0.11,0.26q0.11,0.18 0.15,0.18l0,0q0.08,0 0.14,0.3q0.07,0.29 0.19,0.62q0.12,0.33 0.19,0.55q0.06,0.22 0.15,0.42q0.08,0.19 0.19,0.65q0.11,0.47 0.18,0.59l0,0q0.12,0.26 0,0.54l0,0q-0.07,0.1 -0.1,0.12q-0.03,0.01 -0.14,-0.06l0,0q-0.11,-0.05 -0.19,-0.03q-0.07,0.02 -0.1,-0.03q-0.03,-0.05 -0.09,-0.05l0,0q-0.09,0 -0.68,-0.28l0,0q-0.1,-0.06 -0.17,-0.27l0,0q-0.17,-0.53 -0.42,-0.9l0,0q-0.13,-0.2 -0.11,-0.21q0.01,-0.02 -0.08,-0.19q-0.08,-0.17 -0.08,-0.21q0,-0.04 -0.1,-0.2q-0.1,-0.16 -0.16,-0.34q-0.06,-0.17 -0.11,-0.25q-0.05,-0.08 -0.11,-0.25q-0.05,-0.17 -0.09,-0.17q-0.04,0 -0.31,0.33q-0.28,0.32 -0.39,0.38q-0.12,0.06 -0.2,0.14q-0.08,0.07 -0.13,0.05q-0.06,-0.01 -0.15,0.02l0,0q-0.07,0.04 -0.21,-0.05q-0.15,-0.1 -0.12,-0.19l0,0q0.03,-0.07 -0.13,-0.25l0,0q-0.06,-0.07 -0.06,-0.12q0,-0.05 -0.06,-0.07q-0.06,-0.02 -0.06,-0.11q0,-0.08 -0.06,-0.13q-0.06,-0.04 -0.05,-0.29q0.02,-0.25 0.09,-0.36q0.08,-0.11 0.5,-0.98l0,0l0.44,-0.88l-0.09,-0.2q-0.1,-0.19 -0.14,-0.19q-0.05,0 -0.05,-0.08l0,0q0,-0.1 -0.61,-1.57l0,0q-0.14,-0.29 -0.15,-0.27l0,0q-0.03,0.07 -0.13,0.28q-0.09,0.21 -0.17,0.43q-0.08,0.21 -0.14,0.32l0,0q-0.1,0.15 0.12,0.2l0,0q0.11,0.01 0.11,0.06q0,0.04 -0.11,0.05l0,0q-0.07,0 -0.09,0.04q-0.01,0.04 0.03,0.08q0.03,0.04 0.09,0.04l0,0q0.1,-0.02 0.1,0.03q0,0.04 -0.08,0.04l0,0q-0.05,0 -0.05,0.03q0,0.03 0.03,0.19l0,0q0.07,0.16 0.11,0.16q0.05,0 0.14,0.25l0,0q0.1,0.32 0.46,0.59l0,0q0.07,0.07 0.07,0.09q0,0.01 -0.06,0.07l0,0q-0.07,0.05 -0.04,0.07l0,0q0.01,0.05 -0.09,0.13q-0.1,0.08 -0.33,0.24q-0.23,0.15 -0.57,0.34q-0.34,0.2 -0.83,0.45l0,0q-0.7,0.39 -1.03,0.5q-0.33,0.12 -0.63,0.1l0,0q-0.34,-0.04 -0.56,-0.23l0,0q-0.07,-0.07 -0.11,-0.07q-0.03,0 -0.03,-0.09q0,-0.09 0.04,-0.09l0,0q0.13,0 1.71,-0.94l0,0q1.08,-0.65 1.25,-0.72l0,0q0.24,-0.11 0.17,-0.54l0,0q-0.03,-0.21 -0.03,-0.23q-0.01,-0.01 -0.52,0.41q-0.51,0.43 -0.66,0.49q-0.15,0.06 -0.15,0.12l0,0q0,0.06 -0.03,0.07q-0.03,0 -0.06,-0.04l0,0q-0.05,-0.03 -0.2,-0.04q-0.14,0 -0.2,-0.06q-0.05,-0.05 -0.09,-0.01q-0.04,0.04 -0.04,-0.02q0,-0.05 0.09,-0.08q0.1,-0.03 0.1,-0.07q0,-0.03 -0.06,-0.02q-0.05,0.02 -0.16,0.05l0,0q-0.07,0.04 -0.08,0.03q0,-0.02 0.04,-0.06l0,0q0.07,-0.08 0.07,-0.1q0,-0.02 -0.2,-0.23l0,0q-0.16,-0.15 -0.19,-0.22q-0.04,-0.07 -0.04,-0.25l0,0q0,-0.22 -0.03,-0.26l0,0q-0.03,-0.01 -0.12,0.09q-0.09,0.1 -0.18,0.25l0,0q-0.03,0.07 -0.3,0.47q-0.27,0.4 -0.24,0.5l0,0q0,0.06 -0.01,0.07q-0.02,0.02 -0.06,0l0,0q-0.04,0.02 -0.04,0.04l0,0q0.05,0.08 -0.17,0.42q-0.22,0.33 -0.58,0.67l0,0l-0.59,0.59q-0.26,0.25 -0.32,0.27q-0.06,0.03 -0.21,-0.04q-0.15,-0.07 -0.37,-0.27q-0.21,-0.2 -0.21,-0.28l0,0q0,-0.06 -0.05,-0.06q-0.04,0 -0.13,-0.08q-0.08,-0.08 -0.07,-0.23q0.02,-0.16 -0.01,-0.19l0,0q-0.06,-0.02 -0.05,-0.2q0.02,-0.17 0.08,-0.23l0,0q0.09,-0.08 0.09,-0.13q0,-0.05 0.12,-0.09l0,0q0.09,-0.02 0.3,-0.2q0.21,-0.18 0.25,-0.3l0,0q0.06,-0.11 0.11,-0.42q0.05,-0.31 0.02,-0.36q-0.02,-0.04 -0.08,-0.04q-0.06,0 -0.32,-0.13q-0.26,-0.13 -0.34,-0.13l0,0q-0.17,-0.03 -0.37,-0.13q-0.2,-0.11 -0.2,-0.2l0,0q0,-0.06 -0.16,-0.22l0,0l-0.16,-0.17l0.11,-0.05q0.11,-0.04 0.35,-0.09l0,0q0.54,-0.04 1.2,-0.47l0,0l0.3,-0.2l0.03,-0.46q0.04,-0.47 0.01,-0.73q-0.03,-0.27 -0.06,-0.83l0,0q-0.03,-0.86 -0.21,-0.86l0,0q-0.07,0 -0.07,-0.08q0,-0.08 -0.05,-0.08q-0.05,0 0.02,-0.05q0.06,-0.04 0,-0.09l0,0q-0.13,-0.07 0.14,-0.21l0,0q0.14,-0.06 0.23,-0.06l0,0q0.18,0 0.26,-0.04q0.09,-0.04 0.29,0.1l0,0q0.39,0.26 0.58,0.83l0,0q0.1,0.35 0.1,0.96q0,0.6 -0.01,0.63l0,0q-0.06,0.09 0.11,0.1l0,0q0.08,0 0.17,0l0,0q0.25,0 0.28,0.04q0.02,0.05 0.17,0.05q0.15,0 0.22,0.06q0.07,0.06 0.13,0.06q0.06,0 0.04,0.06q-0.01,0.06 0.05,0.14q0.07,0.07 0.02,0.1l0,0q0,0.02 0.03,0.04q0.02,0.02 0.05,0.02l0,0q0.09,0 0.11,-0.12l0,0q0.01,-0.09 0.05,-0.1q0.04,-0.02 0.15,-0.02l0,0q0.17,0.02 0.32,0.13q0.15,0.11 0.19,0.26l0,0q0.07,0.14 0.1,0.14q0.04,0 0.58,-0.28q0.54,-0.28 0.62,-0.28q0.08,0 0.25,0.09q0.16,0.09 0.22,0.09q0.05,0 0.17,0.06q0.12,0.06 0.12,0.03l0,0q0,-0.06 -0.16,-0.54q-0.17,-0.48 -0.2,-0.54l0,0q-0.06,-0.04 -0.08,-0.04q-0.02,0 -0.12,0.07l0,0q-0.13,0.08 -0.42,0.23q-0.29,0.16 -0.59,0.16q-0.29,0 -0.59,-0.05q-0.3,-0.05 -0.53,-0.08q-0.24,-0.02 -0.27,-0.09q-0.02,-0.08 -0.16,-0.17l0,0q-0.12,-0.12 -0.07,-0.19q0.06,-0.06 0.37,-0.18q0.31,-0.12 0.86,-0.44l0,0l0.88,-0.54q0.35,-0.19 0.35,-0.25q0,-0.05 -0.12,-0.37q-0.11,-0.32 -0.27,-0.91l0,0q-0.14,-0.52 -0.36,-0.94q-0.22,-0.41 -0.34,-0.41l0,0q-0.04,0 -0.09,-0.06q-0.05,-0.06 0.09,-0.14q0.16,-0.09 0.25,-0.11zm-1.58,6.96q0.19,-0.26 0.23,-0.33q0.04,-0.08 0.01,-0.3l0,0l-0.05,-0.23l-0.31,0.21q-0.32,0.2 -0.37,0.2q-0.05,0.01 -0.16,0.12q-0.11,0.12 -0.25,0.22l0,0q-0.21,0.15 -0.26,0.24q-0.06,0.09 -0.09,0.39l0,0q-0.07,0.51 -0.03,0.53l0,0q0.02,0 0.09,-0.08l0,0q0.11,-0.1 0.52,-0.57l0,0l0.43,-0.47q0,0 -0.04,0.07l0,0q-0.03,0.04 -0.2,0.25q-0.16,0.21 -0.16,0.3q0,0.09 -0.06,0.14q-0.05,0.06 0,0.06q0.04,0 0.25,-0.26l0,0l0.45,-0.49zm1.83,-0.4l0,0q0.05,-0.1 0.01,-0.1q-0.04,0 -0.29,0.1l0,0l-0.27,0.12l0,0.2q0,0.21 0.02,0.36l0,0l0.02,0.18l0.23,-0.37q0.2,-0.35 0.28,-0.49zm11.23,-5.54l0,0q0.1,-0.03 0.58,0l0,0q0.86,0.01 0.91,0.28l0,0q0.03,0.11 0.15,0.16q0.12,0.05 0.12,0.15q0,0.09 0.09,0.14l0,0q0.28,0.17 0.43,1.38l0,0q0.02,0.26 -0.04,0.35q-0.06,0.08 -0.06,0.24l0,0q-0.03,0.24 -0.15,0.05l0,0q-0.06,-0.04 -0.2,-0.07q-0.13,-0.03 -0.3,-0.19q-0.16,-0.17 -0.2,-0.17q-0.05,0 -0.05,-0.03q0,-0.03 -0.17,-0.14q-0.17,-0.11 -0.2,-0.3l0,0q-0.17,-1.02 -0.88,-1.72l0,0q-0.09,-0.12 -0.03,-0.13zm4.94,-0.77l0,0q0,0 0.07,0q0.07,0 0.15,0.01q0.08,0.01 0.17,0.02l0,0q0.66,0.16 0.87,0.25q0.21,0.08 0.21,0.22l0,0q0,0.06 0.34,0.39l0,0q0.29,0.27 0.32,0.37q0.03,0.1 -0.08,0.39l0,0q-0.07,0.18 -0.05,0.22q0.01,0.04 0.04,1.19q0.03,1.16 0.03,1.2l0,0q0.03,0.03 0.23,0.01q0.19,-0.01 0.42,-0.07q0.22,-0.06 0.22,-0.1l0,0q0,-0.06 0.58,-0.06l0,0q0.53,0 0.62,0.02q0.09,0.02 0.09,0.08l0,0q0,0.08 0.07,0.1q0.08,0.02 0.18,0.15q0.1,0.13 0.19,0.17l0,0q0.08,0.06 0.18,0.23q0.1,0.16 0.1,0.22l0,0q0,0.09 0.05,0.12q0.04,0.03 0.04,0.12q0,0.09 0.07,0.15l0,0q0.14,0.11 -0.09,0.12l0,0q-0.07,0 -0.25,0l0,0q-0.41,0 -0.61,0.06l0,0q-0.95,0.18 -1.49,0.19l0,0q-0.34,0.02 -0.47,0.07q-0.13,0.04 -0.15,0.18l0,0q-0.04,0.08 0.02,0.78l0,0q0.03,0.8 -0.02,3.31l0,0q-0.04,1.65 -0.16,2.34l0,0q-0.09,0.45 -0.11,0.7l0,0q-0.04,0.21 -0.07,0.35l0,0l-0.06,0.12l-0.12,-0.15q-0.14,-0.14 -0.19,-0.17q-0.05,-0.04 -0.12,-0.13l0,0q-0.53,-0.54 -0.5,-0.62q0.03,-0.07 -0.02,-0.07q-0.04,0 -0.04,-0.09q0,-0.09 -0.05,-0.12q-0.04,-0.03 -0.02,-0.07q0.02,-0.05 -0.04,-0.1q-0.07,-0.06 -0.03,-1.01q0.05,-0.97 0.07,-1.49q0.02,-0.52 0.05,-1.11l0,0l0.03,-1q0.07,-1.3 0.02,-1.35l0,0q-0.03,-0.04 -0.16,0.02q-0.12,0.05 -0.65,0.14q-0.52,0.09 -0.57,0.15l0,0q-0.11,0.11 -0.4,-0.06l0,0q-0.19,-0.09 -0.44,-0.11q-0.25,-0.02 -0.34,-0.09q-0.1,-0.05 -0.35,-0.14q-0.25,-0.08 -0.3,-0.12q-0.04,-0.05 -0.06,-0.05l0,0q-0.04,0 -0.1,0.13q-0.05,0.13 -0.05,0.22l0,0q0,0.12 -0.05,0.15q-0.04,0.02 -0.04,0.22q0,0.2 -0.03,0.22q-0.03,0.02 -0.04,0.36q-0.02,0.34 -0.05,0.68q-0.03,0.35 -0.04,0.6q0,0.26 -0.11,0.44q-0.11,0.19 -0.06,0.36l0,0l0.06,0.16l0.12,-0.09q0.14,-0.09 0.33,-0.29l0,0l0.51,-0.48q0.29,-0.26 0.16,-0.1l0,0q-0.25,0.33 -0.2,0.39l0,0q0.04,0.04 0.23,-0.18l0,0q0.19,-0.13 0.17,-0.09l0,0q-0.06,0.09 -0.09,0.14l0,0q-0.15,0.09 0.02,0.13l0,0q0.06,0.03 0.1,0.03l0,0l0.16,0l-0.12,0.14q-0.08,0.14 -0.26,0.45q-0.17,0.3 -0.21,0.4l0,0q-0.02,0.08 -0.24,0.44q-0.21,0.35 -0.32,0.51l0,0q-0.08,0.09 -0.43,0.39q-0.35,0.3 -0.53,0.43l0,0q-0.18,0.13 -0.28,0.37l0,0q-0.12,0.21 -0.19,0.25q-0.07,0.04 -0.16,-0.09q-0.09,-0.13 -0.3,-0.23l0,0q-0.09,-0.05 -0.14,-0.09q-0.05,-0.05 -0.05,-0.06l0,0q0.01,-0.03 -0.06,-0.15l0,0q-0.11,-0.12 -0.55,-0.23l0,0q-0.07,-0.03 -0.05,-0.22q0.01,-0.2 -0.02,-0.29q-0.03,-0.1 0.35,-0.48q0.39,-0.38 0.55,-0.52l0,0q0.14,-0.1 0.17,-0.26q0.04,-0.14 0.07,-0.73l0,0q0.04,-1.02 0.06,-1.05l0,0q0.01,-0.07 0.04,-0.52q0.03,-0.44 0.03,-0.8q0,-0.36 -0.01,-0.42l0,0q-0.06,0 -0.51,0.25q-0.45,0.25 -0.52,0.32l0,0q-0.08,0.09 -0.24,0.2q-0.17,0.1 -0.22,0.1l0,0q-0.06,0 -0.26,-0.09q-0.22,-0.09 -0.45,-0.1q-0.23,0 -0.4,-0.16q-0.16,-0.16 -0.28,-0.17l0,0q-0.22,-0.07 -0.27,-0.11q-0.04,-0.05 -0.05,-0.23q-0.01,-0.19 0.04,-0.24q0.06,-0.04 0.37,-0.1l0,0q0.19,-0.04 1.17,-0.68q0.98,-0.64 0.94,-0.72l0,0q0,-0.01 0.04,-0.03q0.04,-0.02 0.12,-0.05l0,0q0.17,-0.02 0.36,-0.18l0,0q0.37,-0.3 0.76,-0.18l0,0q0.19,0.07 0.5,0.33q0.31,0.27 0.32,0.37l0,0q0.05,0.14 0.08,0.2q0.03,0.06 0.17,0.31l0,0q0.09,0.17 0.12,0.2q0.04,0.04 0.14,0.03l0,0q0.16,-0.05 0.47,-0.09q0.32,-0.05 1.39,-0.35l0,0l1.11,-0.31l0,-0.69q-0.01,-1.7 -0.15,-2.46l0,0q-0.04,-0.41 -0.02,-0.46q0.02,-0.04 -0.02,-0.09q-0.04,-0.05 -0.1,-0.25q-0.07,-0.19 -0.13,-0.24l0,0q-0.03,-0.02 -0.14,-0.2q-0.11,-0.19 -0.11,-0.25zm13.95,-0.6l0,0q0.05,-0.16 0.08,-0.2q0.02,-0.04 0.1,-0.04l0,0q0.11,0 0.32,0.13q0.22,0.13 0.4,0.29l0,0l0.14,0.14l0.52,-0.12q1.02,-0.29 1.26,-0.11l0,0q0.11,0.04 0.21,0.04l0,0q0.1,0 0.14,0.06q0.04,0.05 0.04,0.2q0,0.15 0.02,0.15q0.02,0 0.18,0.14l0,0l0.16,0.15l-0.35,0.09q-0.88,0.24 -0.9,0.31l0,0q0,0.03 0.11,0.15l0,0q0.27,0.4 0.23,0.58l0,0q-0.03,0.09 0.03,0.12q0.07,0.02 0.09,0.19q0.02,0.16 0.08,0.26q0.05,0.11 0.08,0.23l0,0q0,0.08 -0.01,0.06l0,0q-0.07,-0.04 -0.1,-0.04q-0.03,0 -0.14,-0.12q-0.12,-0.11 -0.26,-0.19q-0.13,-0.07 -0.25,-0.22q-0.13,-0.15 -0.19,-0.15q-0.05,0 -0.2,-0.13q-0.14,-0.12 -0.2,-0.06l0,0q-0.06,0.04 -0.06,-0.02l0,0q0.02,-0.04 0.02,-0.11l0,0q0.04,-0.11 0.01,-0.17q-0.03,-0.05 -0.18,-0.2l0,0q-0.19,-0.18 -0.24,-0.16l0,0q-0.07,0.01 -0.17,0.49l0,0q-0.03,0.18 -0.12,0.3q-0.1,0.12 -0.1,0.18q0,0.06 -0.04,0.14l0,0q-0.16,0.28 -0.38,0.81l0,0q-0.03,0.03 0.03,0.04l0,0q0.19,0 0.32,-0.12l0,0q0.09,-0.1 0.39,-0.1q0.31,0.01 0.43,0.06q0.12,0.06 0.4,0.08q0.28,0.04 0.31,0.05l0,0q0.01,0.02 0,0.05q0,0.04 -0.03,0.06q-0.04,0.03 -0.07,0.01l0,0q-0.03,-0.02 -0.03,-0.01q-0.01,0.01 -0.01,0.04l0,0q0.03,0.06 0.06,0.06l0,0q0.01,0 0.03,0.02q0.02,0.01 -0.02,0.04l0,0q-0.01,0.09 0.1,0.11q0.11,0.03 0.11,0.1q0,0.08 0.09,0.09q0.1,0.02 0.1,0.06q0,0.05 -0.05,0.02l0,0q-0.02,-0.02 -0.02,-0.01q-0.01,0.01 -0.01,0.04l0,0q0.01,0.05 -0.12,0.3l0,0l-0.13,0.22l0.03,0.48q0.01,0.29 0.01,1.3q0,1.03 -0.01,1.79l0,0q0,0.12 -0.03,0.12l0,0q-0.07,0 -0.07,0.46q0,0.46 0.05,0.61l0,0l0.05,0.16l0.39,-0.03l0.53,-0.05q0.64,-0.04 0.81,-0.14l0,0q0.17,-0.08 0.29,0q0.12,0.08 0.36,0.11q0.24,0.02 0.51,0.14l0,0q0.18,0.1 0.23,0.16q0.05,0.05 0.08,0.17l0,0q0.08,0.2 0.21,0.37q0.12,0.19 0.18,0.27q0.05,0.08 0.14,0.16l0,0q0.05,0.02 -0.06,0.05l0,0q-0.11,0 -0.51,0l0,0q-0.66,0.02 -0.9,0.04q-0.24,0.01 -1.27,0.08q-1.02,0.07 -1.06,0.1q-0.04,0.04 0.01,0.12q0.04,0.09 0.02,0.12q-0.02,0.03 -0.05,1.43q-0.02,1.4 -0.02,1.64l0,0q-0.06,1 -0.12,1l0,0q-0.04,0 -0.15,-0.12q-0.11,-0.11 -0.11,-0.18l0,0q0,-0.04 -0.06,-0.04q-0.06,0 -0.09,-0.1q-0.04,-0.1 -0.14,-0.13q-0.1,-0.03 -0.1,-0.12q0,-0.09 -0.2,-0.27q-0.22,-0.18 -0.2,-0.25l0,0q0,-0.03 -0.01,-0.04q-0.01,0 -0.04,0l0,0q-0.06,0.03 -0.11,0q-0.06,-0.04 0.02,-0.24q0.08,-0.21 0.03,-0.28l0,0q-0.03,-0.13 -0.03,-0.63q-0.01,-0.51 0.02,-0.55l0,0q0.03,-0.02 0.03,0.03q0,0.05 0.06,0.05l0,0q0.09,0 0.01,-0.14l0,0q-0.01,-0.06 -0.07,-0.08l0,0q-0.05,0 -0.06,-0.08q-0.01,-0.08 -0.01,-0.41l0,0q0,-0.48 -0.05,-0.54l0,0q-0.03,-0.04 -0.54,0l0,0q-0.39,0.03 -0.45,0.08q-0.06,0.06 -0.1,0.46l0,0q-0.09,0.46 -0.12,0.51q-0.02,0.04 -0.05,0.12l0,0q-0.05,0.42 -0.11,0.51l0,0q-0.03,0.06 -0.14,0.37l0,0q-0.11,0.3 -0.27,0.5q-0.17,0.19 -0.23,0.16l0,0q-0.08,-0.05 -0.19,-0.18q-0.12,-0.13 -0.21,-0.25q-0.08,-0.12 -0.05,-0.12l0,0q0.06,0 0.06,-0.01l0,0q0,-0.05 -0.08,-0.12q-0.08,-0.07 -0.1,-0.07l0,0q-0.01,0.05 -0.21,-0.16q-0.19,-0.21 -0.22,-0.37q-0.02,-0.16 0.1,-0.4l0,0q0.12,-0.24 0.17,-0.3q0.06,-0.06 0.02,-0.06q-0.04,0 0.01,-0.05q0.06,-0.05 0.06,-0.17l0,0q0,-0.11 -0.06,-0.11l0,0q-0.08,0 -0.79,0.14l0,0q-0.53,0.11 -0.79,0.13q-0.25,0.04 -0.52,0.05l0,0q-0.47,0.05 -0.86,-0.22l0,0q-0.15,-0.11 -0.36,-0.15l0,0q-0.31,-0.11 -0.53,-0.21l0,0q-0.06,-0.05 -0.1,-0.05q-0.04,0 -0.11,-0.07q-0.07,-0.06 -0.12,-0.07q-0.04,-0.01 -0.02,-0.09q0.02,-0.07 0.24,-0.05q0.21,0.01 0.48,-0.05q0.28,-0.06 0.33,-0.04q0.05,0.03 0.18,-0.02q0.13,-0.05 0.42,-0.09q0.28,-0.04 0.45,-0.09q0.17,-0.04 0.3,-0.07q0.13,-0.02 0.2,-0.05q0.06,-0.03 0.16,-0.04q0.09,0 0.27,-0.06q0.19,-0.05 0.33,-0.06q0.15,-0.02 0.38,-0.08q0.23,-0.06 0.39,-0.1l0,0q0.25,-0.03 0.29,-0.06q0.04,-0.02 0.03,-0.12l0,0q-0.03,-0.11 -0.13,-0.28q-0.11,-0.18 -0.04,-0.24q0.07,-0.07 0.23,-0.01q0.17,0.06 0.5,0.05l0,0q0.5,0 0.5,0.15l0,0q0,0.04 0.11,0.15q0.11,0.1 0.36,0.07q0.26,-0.03 0.36,-0.06l0,0q0.12,-0.01 0.51,-0.08l0,0q0.02,-0.01 0.05,-0.01l0,0q0.07,-0.03 0.03,-0.09l0,0q-0.02,-0.06 -0.05,-0.06l0,0q-0.04,0 -0.04,-0.11l0,0q0,-0.23 -0.2,-0.41l0,0l-0.12,-0.13l-0.28,0.11q-0.75,0.29 -1.22,0.29l0,0q-0.2,0 -0.28,0.05q-0.08,0.05 -0.15,-0.05q-0.08,-0.09 -0.12,-0.09q-0.04,0 -0.15,-0.09q-0.12,-0.08 -0.36,-0.14q-0.23,-0.06 -0.28,-0.13q-0.04,-0.06 -0.14,-0.1q-0.11,-0.02 -0.1,-0.13q0.01,-0.1 0.08,-0.09l0,0q0.15,0.06 0.02,-0.13l0,0q-0.09,-0.14 -0.02,-0.59l0,0q0.05,-0.27 0.03,-0.39l0,0q0,-0.36 0.02,-0.81l0,0q0.01,-0.19 0,-0.24q0,-0.04 -0.09,-0.06l0,0q-0.08,-0.01 -0.09,-0.08q-0.01,-0.07 0.09,-0.13l0,0q0.06,-0.05 0.07,-0.15q0.02,-0.11 0.02,-0.53l0,0q0,-0.5 -0.03,-0.64q-0.02,-0.13 -0.13,-0.16l0,0q-0.1,-0.03 -0.12,-0.06l0,0q0,-0.03 0.02,-0.03l0,0q0,-0.03 0.03,-0.03l0,0q0.09,0 0.01,-0.06l0,0q-0.04,-0.05 -0.11,-0.08l0,0q-0.12,-0.03 -0.08,-0.08q0.05,-0.05 0.39,-0.01l0,0q0.24,0.06 0.34,0.05q0.1,0 0.31,-0.09l0,0q0.95,-0.35 0.95,-0.39l0,0q0.02,-0.03 -0.1,-0.09q-0.12,-0.07 -0.26,-0.21q-0.14,-0.15 -0.25,-0.15l0,0q-0.12,0 -0.31,-0.22q-0.2,-0.2 -0.24,-0.4l0,0q-0.14,-0.36 -0.22,-0.36l0,0q-0.26,0.39 -0.48,0.78l0,0q-0.17,0.35 -0.33,0.45l0,0q-0.2,0.12 -0.2,-0.06l0,0q0,-0.03 -0.13,-0.17q-0.12,-0.15 -0.19,-0.25l0,0q-0.04,-0.09 -0.16,-0.16q-0.11,-0.07 -0.2,-0.07l0,0q-0.04,0 -0.04,-0.05q0,-0.05 -0.16,-0.2q-0.16,-0.15 -0.15,-0.17q0.01,-0.02 0.09,-0.22l0,0q0.78,-1.44 0.78,-1.59l0,0q0,-0.06 0.07,-0.12q0.07,-0.06 0.16,-0.08l0,0q0.38,-0.07 1.07,0.25l0,0q0.14,0.06 0.18,0.09q0.04,0.04 0.02,0.1l0,0q-0.03,0.15 0.06,0.17q0.1,0.03 0.41,-0.03l0,0q0.51,-0.16 0.89,-0.07l0,0q0.13,0.02 0.13,0.13q0,0.1 0.06,0.13l0,0q0.12,0.09 0.12,-0.02l0,0q0,-0.05 0.08,-0.16q0.07,-0.1 0.04,-0.1q-0.03,0 0,-0.07l0,0q0.07,-0.1 0.27,-0.7zm-0.76,1.91l0,0q0.03,-0.15 0.02,-0.15q-0.01,0 -0.36,0.07q-0.35,0.08 -0.37,0.09q-0.01,0.02 0.11,0.26q0.13,0.25 0.19,0.33l0,0q0.06,0.09 0.12,0.03q0.06,-0.05 0.16,-0.27q0.11,-0.23 0.13,-0.36zm0.18,1.5q-0.01,-0.13 -0.09,-0.22q-0.08,-0.1 -0.15,-0.13l0,0q-0.07,-0.04 -0.07,-0.03q-0.01,0.01 0,0.06l0,0q0.03,0.09 0.1,0.27l0,0q0.01,0.1 0.03,0.14q0.03,0.04 0.1,0.04l0,0q0.09,-0.01 0.08,-0.13zm1.4,1.29l0,-0.25q0.02,-0.17 0.01,-0.21q-0.01,-0.04 -0.06,-0.04l0,0q-0.08,0 -0.67,0.23l0,0q-1.08,0.37 -1.48,0.37l0,0l-0.21,0l0.02,0.24q0.03,0.23 0.06,0.24l0,0q0.03,0.06 0.73,-0.24l0,0q0.71,-0.26 1.2,-0.31l0,0l0.4,-0.03zm0.08,1.38l-0.05,-0.26q-0.03,-0.24 -0.03,-0.25q0,-0.02 -0.08,0.03l0,0l-0.78,0.33q-0.69,0.27 -0.99,0.34l0,0q-0.28,0.06 -0.34,0.1q-0.05,0.05 -0.03,0.14l0,0q0.03,0.07 0.08,0.07q0.04,0 0.2,-0.07l0,0q0.34,-0.18 1.03,-0.39l0,0q0.21,-0.06 0.6,-0.04l0,0l0.39,0zm0.04,1.2q0.02,-0.18 0,-0.28q-0.03,-0.1 -0.06,-0.1q-0.03,0 -0.39,0.18l0,0q-0.49,0.24 -1.01,0.38q-0.51,0.15 -0.76,0.12l0,0q-0.06,0 -0.07,0.03q-0.02,0.04 -0.02,0.17l0,0q-0.01,0.21 0.04,0.25q0.05,0.03 0.21,-0.04l0,0q0.3,-0.16 0.92,-0.33q0.62,-0.17 0.89,-0.17l0,0l0.25,0l0,-0.21zm0.3,1.21l0,0q0,-0.09 -0.25,-0.03l0,0q-0.22,0.05 0.06,0.17l0,0q0.02,0 0.06,0.01l0,0q0.32,0.15 0.3,0.09l0,0q0,-0.03 -0.09,-0.09l0,0q-0.08,-0.07 -0.08,-0.15zm20.07,5.66q-0.02,0.03 -0.06,-0.07q-0.03,-0.09 0.03,-0.02q0.05,0.07 0.03,0.09zm0.05,-0.5l-0.04,-0.03l0.04,-0.04q0.02,0.01 0,0.07l0,0zm-7.25,-9.12q-0.03,-0.03 0.07,-0.08q0.1,-0.04 0.12,-0.04q0.01,0 0.17,0.06q0.16,0.06 0.17,0.05q0.02,-0.02 0.19,0.05q0.17,0.07 0.26,0.04q0.09,-0.02 0.23,0.08q0.15,0.09 0.34,0.22l0,0q0.12,0.07 0.25,0.21q0.13,0.13 0.19,0.26q0.06,0.13 0.01,0.14l0,0q-0.06,0.03 -0.08,0.21q-0.03,0.18 -0.13,0.33l0,0q-0.21,0.33 -0.27,0.87l0,0q-0.01,0.24 -0.04,0.28q-0.03,0.03 -0.09,0.33l0,0q-0.34,1.25 -0.48,1.6l0,0l-0.13,0.28q-0.06,0.17 -0.06,0.21q0,0.05 -0.12,0.29q-0.13,0.25 -0.24,0.49l0,0q-0.39,0.81 -0.56,1.04l0,0q-0.2,0.22 -0.26,0.31q-0.06,0.09 -0.16,0.14l0,0q-0.06,0.02 -0.08,0.02q-0.02,-0.01 -0.02,-0.07l0,0q0,-0.14 -0.06,-0.28q-0.06,-0.15 -0.1,-0.17l0,0q-0.07,-0.02 -0.21,-0.31l0,0l-0.24,-0.58q-0.24,-0.52 -0.27,-0.83l0,0q-0.03,-0.17 0.01,-0.18q0.03,-0.01 0.12,0.1l0,0q0.1,0.12 0.16,0.12q0.07,0 0.1,0.04l0,0q0.09,0.16 0.27,-0.08l0,0q0.15,-0.17 0.15,-0.21q0,-0.05 0.06,-0.23l0,0q0.28,-0.5 0.63,-1.6l0,0q0.07,-0.32 0.19,-0.9q0.11,-0.59 0.08,-0.63l0,0q-0.01,-0.05 -0.26,0.08q-0.25,0.13 -0.5,0.2l0,0q-0.25,0.08 -0.3,0.14q-0.05,0.05 -0.05,0.22l0,0q0,0.28 -0.39,0.96l0,0l-0.53,0.92q-0.29,0.52 -0.48,0.73l0,0l-0.4,0.47q-0.21,0.24 -0.27,0.29q-0.06,0.05 -0.16,0.15l0,0l-0.11,0.11l0,-0.22q0,-0.23 -0.04,-0.23q-0.05,0 -0.07,-0.08q-0.03,-0.09 -0.1,-0.15l0,0q-0.09,-0.1 -0.04,-0.62l0,0q0.01,-0.21 0.05,-0.28q0.03,-0.07 0.17,-0.22l0,0q0.21,-0.18 0.47,-0.57l0,0q0.2,-0.3 0.51,-0.85q0.31,-0.54 0.3,-0.58q-0.02,-0.02 -0.28,-0.08q-0.26,-0.05 -0.45,-0.15q-0.19,-0.11 -0.27,-0.11l0,0q-0.03,0 -0.2,-0.11q-0.19,-0.11 -0.28,-0.19l0,0q-0.01,-0.01 0.06,-0.07q0.06,-0.05 0.05,-0.11l0,0q0,-0.02 0.01,-0.04l0,0q0.03,0.02 0.38,-0.03q0.34,-0.05 0.5,-0.1q0.16,-0.06 0.39,-0.16l0,0q0.7,-0.33 0.76,-0.33l0,0q0.03,0 0.24,-0.1q0.21,-0.09 0.23,-0.13q0.02,-0.02 0.07,-0.02q0.04,0.01 0.09,-0.09q0.05,-0.1 0.24,-0.11l0,0q0.29,0 0.32,-0.03l0,0q0.03,-0.03 0.11,-0.03l0,0q0.03,0 0.06,-0.02q0.02,-0.02 0,-0.04l0,0zm0.2,1.41l0,0q0.06,-0.04 0.01,-0.07q-0.05,-0.02 -0.08,0.03q-0.03,0.04 0,0.06q0.03,0.03 0.07,-0.02zm-0.17,0.05l0,0l-0.01,-0.06q-0.02,0.01 -0.19,0.09q-0.17,0.09 -0.09,0.11q0.07,0.02 0.1,-0.01q0.03,-0.03 0.11,-0.07q0.08,-0.03 0.08,-0.06zm0.21,-4.54q0,-0.04 0.03,-0.11q0.02,-0.06 0.16,-0.02l0,0q0.32,0.11 0.73,0.13l0,0q0.24,0.04 0.32,0.07l0,0q0.6,0.2 0.89,0.44l0,0q0.17,0.13 0.29,0.17l0,0q0.08,0.06 0.23,0.23q0.15,0.16 0.16,0.22l0,0q0.01,0.09 0.11,0.29q0.1,0.19 0.13,0.22l0,0q0.06,0.03 0.13,0.19q0.07,0.17 0.07,0.25l0,0q0.01,0.1 -0.04,0.14q-0.06,0.03 0.01,0.08l0,0q0.03,0.04 0.02,0.16q-0.01,0.11 -0.07,0.12l0,0q-0.03,0.04 -0.03,0.13q0,0.08 -0.05,0.08q-0.04,0 -0.01,0.04q0.03,0.04 -0.05,0.15q-0.07,0.1 -0.07,0.22l0,0l0,0.12l-0.12,-0.12q-0.12,-0.13 -0.15,-0.13q-0.03,0.01 -0.2,-0.12q-0.18,-0.12 -0.31,-0.17q-0.13,-0.04 -0.16,-0.13q-0.02,-0.08 -0.15,-0.15q-0.12,-0.08 -0.12,-0.12q0,-0.04 -0.09,-0.15q-0.08,-0.13 -0.2,-0.43q-0.12,-0.31 -0.19,-0.39q-0.08,-0.08 -0.27,-0.4q-0.2,-0.31 -0.47,-0.54l0,0l-0.36,-0.31q-0.11,-0.09 -0.14,-0.09l0,0l-0.03,-0.07zm-3.6,-0.53q-0.03,-0.13 0.04,-0.18q0.06,-0.06 0.07,-0.06l0,0q0.02,0 0.21,0.09q0.2,0.09 0.28,0.16l0,0q0.09,0.06 0.21,0.09q0.11,0.03 0.41,0.35l0,0q0.22,0.21 0.25,0.32q0.03,0.11 -0.04,0.2l0,0q-0.06,0.06 -0.06,0.14q0,0.07 -0.04,0.09q-0.03,0.03 -0.03,0.17q0,0.16 -0.11,0.28q-0.11,0.13 -0.11,0.24q0,0.12 -0.06,0.18l0,0q-0.22,0.27 -0.36,0.49l0,0q-0.06,0.14 -0.13,0.14l0,0q-0.07,0 -0.25,0.17q-0.17,0.17 -0.17,0.23q0,0.06 -0.28,0.41q-0.29,0.34 -0.35,0.44l0,0q-0.26,0.41 -0.45,0.58l0,0q-0.03,0.03 -0.3,0.38q-0.27,0.37 -0.31,0.37q-0.04,0.01 -0.15,0.19l0,0q-0.22,0.33 -0.22,0.09l0,0q0,-0.11 -0.09,-0.25q-0.1,-0.14 -0.06,-0.22q0.04,-0.08 -0.03,-0.11q-0.07,-0.02 -0.07,-0.1q0,-0.08 -0.05,-0.1l0,0q-0.09,-0.03 -0.03,-0.4q0.05,-0.36 0.16,-0.36l0,0q0.03,0 0.24,-0.31q0.22,-0.31 0.37,-0.58l0,0l0.47,-0.79q0.39,-0.66 0.42,-0.79q0.04,-0.13 0.11,-0.2l0,0q0.15,-0.2 0.36,-0.71q0.2,-0.51 0.15,-0.64l0,0zm14.99,6.43l0,0l0.01,-0.03l0.07,0.01q-0.03,0.04 -0.08,0.02zm7.59,-5.07l0,0q0.49,-0.08 0.54,0l0,0q0.03,0.05 0.12,0.03l0,0q0.08,-0.02 0.14,0.07q0.07,0.09 0.07,0.22l0,0q0,0.1 0.05,0.14q0.06,0.04 0.04,0.23l0,0q-0.04,0.38 0.13,0.38l0,0q0.09,0 0.09,0.02l0,0q0,0.05 -0.13,0.08l0,0l-0.57,0.14q-0.39,0.09 -0.62,0.15l0,0q-0.34,0.1 -1.13,0.25l0,0q-0.55,0.11 -0.8,0.02l0,0q-0.18,-0.06 -0.29,-0.06q-0.1,0 -0.46,-0.14l0,0q-0.47,-0.19 -0.61,-0.33l0,0q-0.03,-0.06 0,-0.06l0,0q0.07,0 0.13,-0.04q0.06,-0.03 -0.05,-0.06l0,0q-0.03,-0.02 -0.04,-0.04l0,0q-0.03,-0.01 0,-0.01l0,0q0.01,0 0.07,0l0,0q0.12,0 0.12,-0.06l0,0q0,-0.08 1.56,-0.51l0,0q0.56,-0.15 0.62,-0.23q0.06,-0.07 0.29,-0.07q0.22,0 0.29,-0.06q0.06,-0.06 0.15,-0.05q0.08,0.02 0.29,-0.01zm-6.08,-0.74l0,0q0.07,-0.05 0.47,0.18l0,0q0.32,0.2 0.6,0.34q0.28,0.14 0.32,0.18q0.04,0.04 0.1,0.04l0,0q0.11,0 0.11,0.08l0,0q0,0.02 -0.02,0.02l0,0q-0.06,0.02 -0.06,0.19l0,0l0,0.14l-0.03,-0.13l-0.03,-0.13l0,0.12q-0.02,0.12 -0.08,0.34q-0.07,0.22 -0.1,0.38q-0.03,0.16 -0.05,0.16q-0.03,0 -0.03,0.39l0,0l0,0.39l0.12,0.01q0.11,0.02 0.15,0.06q0.05,0.04 0.11,0.01q0.06,-0.02 0.09,0.06l0,0q0.06,0.08 0.3,0.36l0,0q0.07,0.1 0.1,0.24l0,0q0.05,0.18 0.12,0.19l0,0q0.02,-0.03 -0.04,-0.25q-0.06,-0.23 -0.11,-0.27l0,0l0.02,-0.03q0.04,0.04 0.23,0.05l0,0l0.16,0.04l-0.1,-0.09q-0.1,-0.08 -0.06,-0.09q0.03,0 0.28,0.09l0,0q0.72,0.24 0.94,0.45l0,0q0.08,0.07 0.13,0.33q0.05,0.27 0.02,0.56l0,0q0,0.23 0.04,0.23q0.04,0 0.39,-0.11q0.34,-0.12 0.55,-0.17l0,0q0.14,-0.03 0.18,-0.07q0.05,-0.02 0.05,-0.09l0,0q0,-0.08 -0.06,-0.13l0,0q-0.08,-0.06 -0.05,-0.09l0,0q0.02,-0.01 0.06,0.01l0,0q0.15,0.09 0.15,-0.12l0,0q0,-0.07 0.1,-0.02l0,0q0.05,0.02 0.22,0.12l0,0q0.19,0.1 0.24,0.11q0.06,0.02 0.17,-0.01l0,0q0.17,-0.04 0.24,-0.09q0.08,-0.04 0.53,-0.09q0.45,-0.04 0.59,-0.1l0,0q0.1,-0.05 0.25,-0.03q0.15,0.03 0.18,0.09l0,0q0.03,0.04 0.08,0.04q0.04,0 0.35,0.3q0.3,0.3 0.3,0.34q0,0.04 -0.03,0.06q-0.04,0.02 -0.04,0.2l0,0q0,0.12 -0.02,0.16q-0.03,0.04 -0.13,0.09l0,0q-0.16,0.1 -0.31,0.12q-0.15,0.02 -0.54,0.11q-0.38,0.09 -0.58,0.12l0,0q-0.17,0.02 -0.2,0.1q-0.02,0.08 -0.05,0.65l0,0q-0.01,0.57 -0.05,0.7q-0.04,0.13 -0.1,1.65l0,0q-0.04,1.11 -0.07,1.35q-0.02,0.23 -0.08,0.29l0,0q-0.27,0.31 -0.24,0.42l0,0q0.01,0.08 -0.02,0.22q-0.04,0.14 -0.09,0.2q-0.05,0.06 -0.05,0.11q0,0.06 -0.06,0.22q-0.06,0.16 -0.11,0.16l0,0q-0.01,0 -0.01,-0.06q0,-0.06 -0.04,-0.06q-0.04,-0.01 -0.08,-0.01l0,0q-0.03,0 -0.22,-0.15q-0.18,-0.15 -0.19,-0.19q-0.01,-0.04 -0.09,-0.09l0,0q-0.15,-0.15 -0.15,-0.43l0,0q0,-0.09 -0.07,-0.23q-0.06,-0.14 -0.06,-0.26l0,0q0.06,-0.63 0.1,-1.74l0,0q0.02,-0.7 0.04,-1.18q0.02,-0.47 0.03,-0.77q0.01,-0.3 0,-0.43q-0.01,-0.12 -0.01,-0.12l0,0q-0.03,0 -0.27,0.05l0,0q-0.55,0.12 -0.78,0.12l0,0q-0.11,-0.01 -0.14,0q-0.03,0.02 -0.04,0.09l0,0q-0.02,0.1 -0.15,0.63q-0.13,0.53 -0.16,0.67l0,0l-0.09,0.42q-0.07,0.27 -0.13,0.37q-0.06,0.11 -0.06,0.18l0,0q0,0.09 -0.16,0.36q-0.16,0.27 -0.31,0.39l0,0q-0.05,0.03 -0.16,0.14q-0.1,0.12 -0.21,0.24l0,0l-0.12,0.1l-0.02,-0.1q-0.03,-0.22 -0.12,-0.22l0,0q-0.06,0 -0.14,-0.12q-0.07,-0.13 -0.12,-0.28l0,0q-0.05,-0.19 -0.08,-0.22q-0.03,-0.02 0.03,-0.19q0.05,-0.17 0,-0.21q-0.04,-0.02 0.05,-0.14q0.09,-0.11 0.09,-0.15q0,-0.03 0.12,-0.35l0,0q0.11,-0.27 0.31,-1.02q0.2,-0.75 0.26,-1.13l0,0q0.05,-0.31 0.05,-0.76q0.01,-0.45 -0.03,-0.64q-0.05,-0.18 -0.06,-0.19q-0.01,-0.01 -0.27,0.14q-0.26,0.15 -0.54,0.3q-0.28,0.15 -0.33,0.25q-0.05,0.1 -0.1,0.43q-0.05,0.34 -0.05,0.55l0,0l0,0.21l0.15,0.09q0.2,0.11 0.5,0.3q0.29,0.19 0.29,0.23l0,0q0,0.22 -0.16,0.4l0,0q-0.08,0.08 -0.08,0.18l0,0q0,0.06 -0.04,0.07q-0.03,0.02 -0.23,0.04l0,0q-0.28,0.02 -0.42,0l0,0l-0.13,-0.02l0,1q0,0.74 -0.01,0.89q-0.01,0.15 -0.07,0.2l0,0q-0.11,0.09 -0.12,0.68l0,0q-0.02,0.25 -0.06,0.35q-0.05,0.1 -0.07,0.19q-0.02,0.08 -0.12,0.21l0,0q-0.12,0.11 -0.14,0.05l0,0q-0.01,-0.06 -0.16,-0.14l0,0q-0.2,-0.08 -0.59,-0.55l0,0q-0.1,-0.13 -0.08,-0.21q0.02,-0.07 0.04,-0.55q0.01,-0.47 0.03,-0.66l0,0l0.06,-0.48q0.03,-0.21 0.04,-0.59q0.02,-0.37 0.02,-0.62q0.01,-0.25 -0.02,-0.29l0,0q-0.03,0 -0.28,0.37l0,0q-0.37,0.51 -0.65,0.87l0,0q-0.48,0.65 -0.54,0.65l0,0q-0.04,0 -0.04,0.03q0,0.04 -0.19,0.23q-0.19,0.19 -0.23,0.19q-0.04,0 -0.02,-0.08l0,0q0.01,-0.04 0.01,-0.06q-0.01,-0.01 -0.07,0l0,0q-0.08,0.02 -0.08,-0.02q0,-0.04 -0.1,-0.15l0,0q-0.09,-0.08 -0.11,-0.27q-0.02,-0.19 0.04,-0.25l0,0q0.06,-0.05 0.04,-0.12l0,0q-0.04,-0.14 0.33,-0.6l0,0q0.11,-0.13 0.11,-0.19q0,-0.06 0.09,-0.12q0.09,-0.05 0.28,-0.33l0,0q0.63,-0.98 0.78,-1.23l0,0l0.1,-0.19l-0.09,0.02q-0.19,0.06 -0.81,-0.08q-0.63,-0.15 -0.76,-0.27q-0.13,-0.13 -0.31,-0.43l0,0q-0.03,-0.04 0.3,-0.03q0.32,0.02 0.54,-0.04l0,0q0.46,-0.14 1.51,-0.75l0,0l0.43,-0.27l0.03,-0.87q0.02,-0.89 0.05,-1.47l0,0l0.01,-0.59l-0.09,-0.15l-0.1,-0.14l0.12,0.02q0.1,0.02 0.1,-0.03l0,0q-0.03,-0.04 0,-0.08zm13.91,-0.58l0,0q0.31,-0.04 0.66,0.09l0,0q0.12,0.05 0.22,0.24q0.09,0.2 0.18,0.24q0.1,0.05 0.15,0.43q0.05,0.38 0.04,0.74l0,0l0,0.34l0.38,0.04q0.69,0.03 0.74,0.34l0,0q0.03,0.09 0.18,0.26q0.15,0.16 0.24,0.19l0,0q0.09,0.03 0.17,0.14q0.07,0.1 -0.02,0.18l0,0q-0.78,0.59 -0.94,0.7l0,0q-0.17,0.1 -0.15,0.19q0.03,0.1 0.03,0.28q0,0.17 0.12,0.24q0.12,0.07 0.12,0.25l0,0q-0.05,0.57 -0.02,0.63q0.03,0.06 0.25,0.06l0,0q0.49,-0.01 0.56,0.2l0,0q0.03,0.1 0.15,0.21q0.12,0.12 0.19,0.12l0,0q0.06,0 0.05,0.05l0,0q-0.02,0.05 0.02,0.07q0.04,0.03 0.1,0.05l0,0l0.15,0.08l-0.19,0.12q-0.44,0.26 -0.89,0.57q-0.45,0.32 -0.48,0.38l0,0q-0.03,0.1 -0.06,0.28l0,0q0,0.12 0.02,0.14q0.01,0.01 0.09,0.01l0,0q0.1,-0.01 0.32,0.01q0.23,0.02 0.23,0.11q0,0.09 0.12,0.09l0,0q0.09,0 0.09,0.01q0,0.01 -0.03,0.08l0,0q-0.15,0.14 0,0.14l0,0q0.08,0 0.11,0.14q0.03,0.14 0,0.18q-0.02,0.04 0.11,0.11q0.14,0.07 0.14,0.05q0,-0.02 0.07,0.04l0,0q0.08,0.09 0.08,0.13q0,0.04 -0.09,0.07l0,0q-0.36,0.19 -0.99,0.6l0,0l-0.47,0.3l-0.03,0.5q-0.03,0.53 -0.03,1.04l0,0q0,0.92 -0.13,1.27l0,0q-0.06,0.13 -0.07,0.39l0,0l-0.03,0.26l-0.24,-0.32q-0.23,-0.33 -0.26,-0.39l0,0q-0.09,-0.21 -0.49,-0.63l0,0q-0.13,-0.12 -0.14,-0.17q-0.02,-0.05 0.01,-0.17l0,0q0.07,-0.15 0.09,-0.4q0.02,-0.25 0.02,-0.42q0,-0.17 -0.03,-0.19l0,0q-0.03,0 -0.7,0.42l0,0q-0.84,0.57 -1.12,0.68q-0.28,0.1 -0.69,0.01l0,0q-0.2,-0.03 -0.22,-0.07q-0.01,-0.05 -0.09,-0.05q-0.07,0 -0.22,-0.13q-0.14,-0.14 -0.22,-0.14q-0.07,0 -0.17,-0.07q-0.11,-0.07 -0.17,-0.12l0,0q-0.19,-0.05 0.14,-0.23l0,0q0.13,-0.07 0.69,-0.46l0,0l0.82,-0.57l0.47,-0.33q0.18,-0.12 0.32,-0.16l0,0q0.37,-0.12 0.7,-0.43l0,0q0.08,-0.04 0.11,-0.02q0.02,0.01 0.02,-0.03q0,-0.05 0.1,-0.07q0.11,-0.02 0.27,-0.12q0.16,-0.1 0.16,-0.25q0,-0.15 -0.08,-0.23l0,0q-0.04,-0.04 -0.09,-0.03q-0.04,0.01 -0.2,0.08l0,0q-0.22,0.15 -0.64,0.34q-0.42,0.19 -0.44,0.23q-0.02,0.05 -0.16,0.11q-0.13,0.07 -0.2,0.07l0,0q-0.04,0 -0.25,-0.21l0,0q-0.8,-0.81 -0.94,-0.86l0,0q-0.09,-0.04 -0.1,-0.13q-0.01,-0.09 -0.01,-0.16l0,0q-0.01,-0.09 0.05,-0.12q0.06,-0.03 0.22,-0.02l0,0q0.21,0.02 0.3,-0.09l0,0q0.08,-0.09 0.29,-0.5q0.22,-0.41 0.29,-0.63q0.08,-0.22 0.12,-0.22q0.05,0 0.05,-0.07q0,-0.08 0.09,-0.3q0.09,-0.23 0.09,-0.26q0,-0.03 -0.27,-0.12l0,0q-0.31,-0.11 -0.75,-0.27q-0.43,-0.17 -0.43,-0.18l0,0q0.01,-0.09 0.32,-0.33l0,0q0.17,-0.13 0.25,-0.2q0.07,-0.05 0.32,-0.26q0.24,-0.2 0.37,-0.32q0.13,-0.12 0.46,-0.34l0,0q0.36,-0.29 0.42,-0.41q0.06,-0.12 0.15,-0.87l0,0q0.18,-1.62 0.11,-1.87l0,0q-0.05,-0.2 -0.11,-0.23l0,0q-0.12,-0.08 0.06,-0.12l0,0q0.05,-0.01 0.09,-0.03zm0.81,5.91q-0.03,-0.03 -0.02,-0.25q0,-0.21 -0.03,-0.23l0,0q-0.01,-0.03 -0.02,0.03l0,0q-0.02,0.07 -0.11,0.32l0,0q-0.07,0.26 -0.13,0.46q-0.06,0.2 -0.05,0.21q0.02,0.02 0.15,-0.05q0.14,-0.07 0.16,-0.13l0,0q0.05,-0.06 0.08,-0.2q0.03,-0.14 -0.03,-0.16l0,0zm4.04,-6.23q0.07,-0.07 0.07,-0.14q0,-0.06 0.08,-0.03q0.09,0.04 0.35,0.04l0,0q0.55,0.02 0.55,0.23l0,0q0,0.12 0.06,0.19q0.05,0.08 0.13,0.08l0,0q0.18,0 0.09,0.46l0,0q-0.03,0.25 -0.03,0.48l0,0q0,0.66 -0.3,1.6l0,0q-0.13,0.48 -0.12,0.5q0.02,0.02 0.4,-0.17l0,0q0.46,-0.2 0.77,-0.34l0,0q0.23,-0.09 0.35,-0.22l0,0q0.31,-0.28 0.56,-0.1l0,0q0.11,0.1 0.17,0.08l0,0q0.05,-0.03 0.17,0.02q0.13,0.05 0.13,0.09q0,0.04 0.04,0.04q0.03,0 0.26,0.21q0.23,0.21 0.23,0.25q0,0.04 0.13,0.17l0,0l0.15,0.14l-0.05,0.31q-0.07,0.29 -0.11,0.42l0,0l-0.09,0.23l-0.12,0.31q-0.11,0.24 -0.15,0.3q-0.04,0.06 -0.14,0.27l0,0q-0.11,0.21 -0.31,0.52q-0.2,0.31 -0.28,0.37l0,0q-0.09,0.05 -0.09,0.1l0,0q0,0.05 -0.21,0.29q-0.2,0.25 -0.25,0.25l0,0q-0.07,0 -0.48,0.45l0,0q-0.19,0.21 -0.24,0.21q-0.04,0 -0.18,0.15q-0.14,0.15 -0.26,0.17l0,0q-0.09,0 -0.07,-0.05l0,0q0.06,-0.05 0.04,-0.14q-0.01,-0.1 -0.07,-0.1l0,0q-0.18,0 -0.36,0.62l0,0q-0.15,0.43 -0.15,0.45q0,0.03 0.32,0.09q0.31,0.07 0.32,0.14q0.02,0.06 0.09,0.04q0.06,-0.02 0.15,0.02q0.08,0.04 0.68,0.23l0,0q1.29,0.42 1.86,0.68l0,0q0.22,0.1 0.64,0.36q0.41,0.25 0.42,0.33l0,0q0.03,0.02 0.13,0.14q0.1,0.13 0.1,0.23q0,0.1 0.05,0.15q0.04,0.05 0.06,0.16q0.01,0.11 0.1,0.21q0.09,0.1 0.06,0.21l0,0q-0.06,0.2 0.12,0.36l0,0q0.07,0.06 0.06,0.15q-0.02,0.09 0.04,0.16q0.05,0.07 0.02,0.07l0,0q-0.05,0 -0.34,-0.12q-0.29,-0.12 -0.35,-0.18l0,0q-0.09,-0.05 -0.18,-0.05l0,0q-0.24,0 -1.26,-0.49l0,0q-0.06,-0.06 -0.14,-0.08q-0.07,-0.03 -0.11,-0.05q-0.04,-0.02 -0.04,-0.02q0,0 -0.03,-0.01q-0.04,-0.01 -0.09,-0.03q-0.05,-0.04 -0.11,-0.08l0,0q-0.28,-0.12 -0.33,-0.12q-0.05,0 -0.16,-0.08q-0.1,-0.08 -0.18,-0.1q-0.08,-0.02 -0.55,-0.22l0,0q-0.96,-0.44 -1.2,-0.53l0,0l-0.39,-0.14q-0.18,-0.07 -0.22,-0.03q-0.03,0.03 -0.25,0.46l0,0q-0.34,0.64 -0.79,1.19l0,0q-0.31,0.35 -0.45,0.32l0,0q0,-0.06 -0.04,-0.01q-0.05,0.05 -0.15,0.05q-0.1,0 -0.13,0.04q-0.04,0.04 -0.17,0.04q-0.12,0 -0.12,-0.03l0,0q0,-0.05 -0.06,-0.02q-0.06,0.02 -0.06,-0.02q0,-0.04 0.03,-0.04q0.04,0 0.07,-0.07l0,0q0.02,-0.05 -0.05,-0.09q-0.07,-0.05 -0.25,-0.08l0,0q-0.12,-0.03 -0.08,-0.12l0,0q0.02,-0.07 0,-0.08q-0.03,0 -0.09,0.01l0,0q-0.09,0.01 -0.11,-0.01q-0.02,-0.04 -0.01,-0.22l0,0q0,-0.04 -0.01,-0.06q-0.02,-0.01 -0.1,-0.01l0,0q-0.14,0 -0.17,-0.06l0,0q-0.07,-0.13 0.43,-0.63l0,0q0.37,-0.34 0.71,-0.96l0,0q0.18,-0.3 0.26,-0.38q0.07,-0.08 0.11,-0.19q0.04,-0.1 -0.05,-0.16l0,0l-0.11,-0.08l0.11,0q0.12,0 0.18,-0.05q0.07,-0.06 0.14,-0.22l0,0q0.29,-0.66 0.52,-1.41q0.23,-0.75 0.23,-1.07l0,0l0,-0.11l-0.13,0.06q-0.15,0.05 -0.25,0.04l0,0q-0.11,-0.01 -0.25,-0.08q-0.13,-0.07 -0.13,-0.1l0,0q0,-0.06 -0.22,-0.28q-0.21,-0.23 -0.2,-0.26q0.02,-0.03 -0.16,-0.19q-0.17,-0.17 -0.17,-0.22q0,-0.05 -0.07,-0.05q-0.06,0 -0.09,-0.08q-0.02,-0.07 -0.08,-0.11q-0.06,-0.04 -0.06,-0.08l0,0q0,-0.06 0.11,-0.14q0.11,-0.07 0.19,-0.12l0,0q0.22,-0.03 0.48,-0.51l0,0q0.15,-0.25 0.22,-0.39q0.08,-0.14 0.12,-0.22l0,0l0.17,-0.35q0.27,-0.61 0.32,-0.76l0,0q0.01,-0.06 0.25,-0.79l0,0q0.33,-0.95 0.18,-1.21l0,0q-0.05,-0.14 0.02,-0.2zm1.4,5.59q0.11,-0.14 0.16,-0.28q0.06,-0.13 0.03,-0.23q-0.02,-0.1 -0.08,-0.03q-0.06,0.05 -0.33,0.19l0,0q-0.3,0.16 -0.34,0.23q-0.05,0.05 0.04,0.21l0,0q0.11,0.17 0.12,0.33l0,0l0.05,0.14l0.11,-0.17q0.14,-0.21 0.14,-0.23q0,-0.02 0.1,-0.16zm9.2,-4.19l0,0q0.02,-0.03 0.08,-0.02q0.07,0.01 0.2,0.05q0.12,0.05 0.23,0.09l0,0q0.54,0.3 0.73,0.45q0.19,0.15 0.31,0.36l0,0q0.1,0.21 0.21,0.36q0.11,0.15 0.14,0.29q0.03,0.15 -0.15,0.36q-0.19,0.21 -0.22,0.3l0,0q-0.14,0.27 -0.33,0.38l0,0q-0.08,0.07 -0.07,0.18q0.01,0.11 -0.12,0.13q-0.14,0.02 -0.18,0q-0.03,-0.02 -0.08,0.02l0,0q0,0.02 0,0.03q0,0.01 0.03,-0.01l0,0q0.05,-0.02 0.08,0.02l0,0q0.01,0.04 -0.12,0.27q-0.13,0.23 -0.19,0.27l0,0q-0.07,0.03 -0.07,0.08q0,0.05 -0.12,0.16q-0.12,0.12 -0.27,0.28q-0.15,0.17 -0.18,0.17q-0.03,0 -0.03,0.05q0,0.05 0.09,-0.04l0,0l0.09,-0.09l-0.06,0.15q-0.09,0.14 -0.15,0.11q-0.06,-0.02 -0.09,0.04l0,0q-0.02,0.03 0,0.03l0,0q0.01,0 0.04,-0.02l0,0q0.03,-0.01 0.05,0q0.01,0.02 0,0.07q-0.02,0.04 0.01,0.06q0.03,0.03 0.14,0.07l0,0q0.27,0.08 0.38,0.3q0.11,0.23 0.22,0.9l0,0q0.09,0.57 0.04,2.06q-0.06,1.48 -0.16,1.48l0,0q-0.03,0 -0.03,0.1q0,0.11 -0.11,0.39l0,0q-0.2,0.59 -0.25,0.62l0,0q-0.04,0 -0.06,-0.1l0,0q0,-0.1 -0.09,-0.15l0,0q-0.08,-0.05 -0.16,-0.13q-0.08,-0.09 -0.08,-0.14q0,-0.05 -0.11,-0.12q-0.11,-0.08 -0.11,-0.18q0,-0.09 -0.06,-0.15q-0.06,-0.05 -0.06,-0.19q0,-0.14 -0.07,-0.23q-0.07,-0.08 -0.07,-0.15q0,-0.06 -0.05,-0.09q-0.06,-0.03 0.02,-0.13l0,0q0.11,-0.08 0.15,-0.49l0,0q0.02,-0.19 0.06,-0.22q0.05,-0.04 0.05,-0.15q0,-0.12 0.01,-0.14l0,0q0.03,-0.04 0.02,-0.74q0,-0.7 -0.03,-0.84l0,0q-0.05,-0.17 -0.08,-0.37l0,0q-0.03,-0.42 -0.12,-0.51l0,0q-0.04,-0.06 -0.12,0.03q-0.08,0.09 -0.05,0.15q0.02,0.06 -0.07,0.03l0,0q-0.03,-0.01 -0.04,0q-0.01,0.01 -0.01,0.08l0,0q0.03,0.05 -0.05,0.17q-0.08,0.13 -0.15,0.13l0,0q-0.05,0 -0.14,0.11q-0.09,0.11 -0.09,0.08q0,-0.03 -0.07,0.02q-0.07,0.06 -0.04,0.12q0.02,0.07 -0.03,0.07q-0.06,0 -0.06,-0.06l0,0q0,-0.12 -0.24,0.2l0,0q-0.03,0.04 -0.05,0.1l0,0q-0.11,0.13 -0.18,0.17q-0.06,0.02 -0.04,0.11q0.02,0.08 0.06,0.06q0.04,-0.02 0.04,-0.01l0,0q0,0.05 -0.15,0.18l0,0q-0.08,0.09 -0.11,0.1q-0.03,0 -0.05,-0.05l0,0q-0.01,-0.11 -0.06,-0.11q-0.04,0 -0.04,-0.09l0,0q0,-0.03 -0.01,-0.05q-0.01,-0.02 -0.02,-0.01q-0.02,0.02 -0.04,-0.01q-0.02,-0.02 -0.02,-0.03l0,0q0,-0.09 -0.06,-0.05l0,0q-0.07,0.02 -0.1,-0.04q-0.03,-0.05 0.01,-0.09l0,0q0.06,-0.06 0.02,-0.13q-0.03,-0.07 -0.12,-0.07l0,0q-0.09,0 -0.08,-0.12q0.02,-0.12 -0.02,-0.28q-0.04,-0.17 0.01,-0.23q0.06,-0.06 0.03,-0.12q-0.03,-0.06 0.04,-0.09q0.08,-0.03 0.06,-0.09l0,0q-0.03,-0.06 0.05,-0.19q0.07,-0.14 0.11,-0.14q0.05,0 0.12,-0.12q0.06,-0.12 0.19,-0.22q0.12,-0.11 0.12,-0.17q0,-0.06 0.06,-0.03l0,0q0.04,0.02 0.05,0q0.01,-0.01 0.01,-0.06l0,0q-0.05,-0.09 0.04,-0.15q0.09,-0.06 0.09,-0.09q0,-0.03 0.25,-0.4q0.26,-0.36 0.31,-0.39q0.04,-0.02 0.04,-0.11q0,-0.09 0.06,-0.14q0.06,-0.05 0.16,-0.25q0.11,-0.19 0.13,-0.22q0.02,-0.04 0.06,-0.12q0.04,-0.09 0.49,-0.96q0.45,-0.86 0.52,-1.07q0.07,-0.21 0,-0.42q-0.07,-0.21 -0.07,-0.21zm-0.35,4.52l0,0q0.03,-0.03 0,-0.09q-0.03,-0.05 -0.06,0.01l0,0q-0.03,0.03 -0.01,0.06q0.01,0.03 0.07,0.02zm4.58,-6.19l0,0q0.03,-0.16 0.3,0l0,0q0.17,0.11 0.48,0.28l0,0q0.32,0.16 0.64,0.45q0.32,0.3 0.32,0.43l0,0q0,0.1 0.05,0.19q0.06,0.1 0,0.21q-0.06,0.11 -0.03,0.23q0.03,0.12 -0.06,0.33q-0.08,0.21 -0.1,0.39l0,0q-0.04,0.15 -0.06,0.48q-0.01,0.33 -0.01,0.55q0,0.23 0.01,0.26l0,0q0.11,0 0.32,-0.21l0,0q0.05,-0.05 0.2,0.02q0.16,0.05 0.37,0.06q0.21,0.01 0.37,0.18q0.15,0.18 0.3,0.21l0,0q0.28,0.1 0,0.15l0,0q-0.15,0.04 -0.15,0.12q0,0.07 0.15,0.13l0,0q0.13,0.03 0.16,0.16q0.04,0.13 0.09,0.13q0.06,0 0,0.06q-0.06,0.06 -0.5,0.16l0,0q-0.69,0.14 -1.19,0.39l0,0l-0.13,0.09l0,0.53l0,0.51l0.23,-0.07q0.22,-0.07 0.3,-0.11q0.07,-0.05 0.07,0l0,0q0,0 0.03,0q0.03,0 0.08,-0.03q0.05,-0.02 0.1,-0.03l0,0q0.89,-0.27 1.27,-0.34l0,0q0.23,-0.01 0.6,0.07q0.36,0.07 0.47,0.16l0,0q0.09,0.09 0.14,0.09q0.06,0 0.18,0.16q0.13,0.15 0.18,0.15q0.05,0 0.03,0.06q-0.02,0.05 -0.05,0.13q-0.03,0.07 -0.1,0.07l0,0q-0.15,0 -0.06,0.07l0,0q0.01,0.04 0.08,0.05l0,0q0.11,0.04 0.11,0.11q0,0.05 0.1,0.13l0,0q0.06,0.06 -0.07,0.08l0,0q-0.09,0 -0.36,0l0,0q-0.75,0 -1.39,0.19l0,0q-0.27,0.09 -0.96,0.29l0,0q-0.81,0.21 -0.91,0.27q-0.1,0.06 -0.1,0.3l0,0q-0.03,0.27 -0.07,0.68q-0.04,0.41 -0.04,2.25q-0.01,1.83 -0.09,1.95q-0.08,0.11 -0.08,0.17l0,0q0,0.11 -0.06,0.24q-0.05,0.13 -0.09,0.13l0,0q-0.03,0 -0.05,0.07q-0.01,0.07 0.02,0.16q0.04,0.09 0.09,0.15l0,0q0.04,0.06 0.04,0.07q0,0.01 -0.04,-0.03l0,0q-0.2,-0.16 -0.66,-0.67l0,0q-0.11,-0.11 -0.25,-0.67q-0.15,-0.56 -0.15,-0.79l0,0q0,-0.3 0.13,-2.9l0,0l0.04,-0.79l-0.42,0.16l-0.54,0.19q-0.14,0.06 -0.49,0.13l0,0q-0.28,0.08 -0.36,0.08q-0.08,0 -0.24,-0.06l0,0q-0.69,-0.19 -1.04,-0.4l0,0q-0.12,-0.08 -0.34,-0.27q-0.21,-0.18 -0.21,-0.21l0,0q0,-0.05 0.32,-0.05q0.32,0 0.66,-0.1l0,0q0.84,-0.26 1.16,-0.41l0,0q0.06,-0.03 0.49,-0.18l0,0l0.74,-0.23l0.32,-0.09l0.01,-0.41l0,-0.41l-0.15,0.07q-0.27,0.11 -0.43,0l0,0q-0.09,-0.07 -0.14,-0.07l0,0q-0.07,0 -0.48,-0.25q-0.4,-0.24 -0.48,-0.35l0,0l-0.11,-0.1l-0.26,0.27q-0.23,0.19 -0.2,0.15l0,0q0.05,-0.12 0,-0.15q-0.04,-0.04 -0.15,0.05l0,0q-0.09,0.11 -0.24,0.22l0,0q-0.12,0.07 -0.12,0.04l0,0q-0.01,0 0,-0.03l0,0q0.02,-0.04 -0.03,-0.01l0,0q-0.03,0 -0.09,0.04l0,0q-0.13,0.11 -0.15,0.05l0,0q-0.06,-0.11 -0.21,0.02l0,0q-0.03,0.02 -0.05,0l0,0l0.02,-0.02q-0.02,0.01 -0.06,0.02l0,0q-0.08,0.08 -0.24,0.21l0,0l-0.15,0.12l0.12,-0.13q0.12,-0.15 0.19,-0.29l0,0q0.05,-0.07 0.03,-0.1l0,0q0,0 -0.03,0.03l0,0q-0.07,0.02 -0.07,-0.05l0,0q0,-0.08 0.1,-0.16l0,0q0.14,-0.13 0.06,-0.17l0,0q-0.03,0 -0.07,0.07l0,0l-0.09,0.04q0.01,-0.06 0.27,-0.36l0,0q0.29,-0.31 0.3,-0.33l0,0q0.25,-0.26 0.56,-0.72l0,0q0.22,-0.36 0.41,-0.87q0.18,-0.51 0.14,-0.66l0,0q-0.03,-0.1 0.03,-0.18l0,0q0.04,-0.04 0.15,-0.04q0.11,0.01 0.14,0.07l0,0q0.06,0.08 0.36,0.28q0.31,0.22 0.45,0.35l0,0q0.1,0.09 0.12,0.16q0.03,0.06 0,0.35l0,0l0,0.42l-0.24,0.21q-0.25,0.23 -0.35,0.39l0,0l-0.08,0.18l0.15,-0.04q0.14,-0.03 0.6,-0.24q0.46,-0.21 0.49,-0.26l0,0q0.03,-0.03 0,-0.58q-0.03,-0.54 -0.11,-0.62q-0.08,-0.08 -0.06,-0.17q0.01,-0.1 0.07,-0.33q0.05,-0.22 0.03,-0.29q-0.02,-0.08 -0.07,-0.72q-0.05,-0.65 -0.11,-0.81q-0.07,-0.15 -0.03,-0.23q0.03,-0.07 -0.03,-0.25q-0.06,-0.17 -0.01,-0.28z"/>
      </g>
      <!---->
      <!---->
      <!---->
      <!---->
      <!---->
      <!---->
      <!---->
     </g>
    </g>
    <g id="svg_25" fill="#ffffff" class="tp-slogan iconsvg-slogansvg" data-gra="path-slogan">
     <!---->
     <!---->
     <g id="svg_26" transform="translate(81.0182 78.8279) scale(1 1)">
      <g id="svg_27" transform="translate(0 67.0889) scale(1 1)">
       <path id="svg_28" d="m-78.1782,-53.63258l-0.38,-1.1l-1.54,0l-0.4,1.1l-0.52,0l1.44,-3.81l0.58,0l1.38,3.81l-0.56,0zm-1.15,-3.25l-0.6,1.69l1.18,0l-0.56,-1.69l-0.02,0zm2.79,-0.56l1.92,3.08l0,-3.08l0.5,0l0,3.81l-0.59,0l-1.93,-3.08l-0.02,0l0,3.08l-0.5,0l0,-3.81l0.62,0zm4.19,0.44l-1.29,0l0,-0.44l3.08,0l0,0.44l-1.29,0l0,3.37l-0.5,0l0,-3.37zm2.33,-0.44l0.52,0l0,3.81l-0.52,0l0,-3.81zm4.25,2.21l-1.17,0l0,-0.44l1.67,0l0,2.04l-0.34,0l-0.12,-0.48q-0.44,0.52 -1.25,0.54l0,0q-0.77,0 -1.19,-0.39l0,0q-0.62,-0.59 -0.6,-1.61l0,0q0.14,-1.89 1.81,-1.98l0,0q1.42,0.09 1.63,1.25l0,0l-0.5,0q-0.21,-0.79 -1.15,-0.81l0,0q-1.19,0.09 -1.25,1.56l0,0q0,1.59 1.27,1.59l0,0q0.46,0 0.79,-0.25l0,0q0.42,-0.34 0.4,-1.02l0,0zm1.87,1.14l2.29,0l0,0.46l-2.81,0l0,-3.81l2.77,0l0,0.44l-2.25,0l0,1.18l2.08,0l0,0.46l-2.08,0l0,1.27zm3.58,-3.35l1.92,3.08l0,-3.08l0.5,0l0,3.81l-0.58,0l-1.94,-3.08l-0.02,0l0,3.08l-0.5,0l0,-3.81l0.62,0zm6.13,0.42l-0.92,0l0,1.18l0.92,0q0.81,0.02 0.79,-0.62l0,0q0,-0.56 -0.79,-0.56l0,0zm0.21,3.39l-1.65,0l0,-3.81l1.69,0q1.02,0.04 1.06,0.96l0,0q0,0.56 -0.5,0.79l0,0q0.71,0.25 0.71,0.94l0,0q-0.06,1.08 -1.31,1.12l0,0zm-0.13,-1.77l-1,0l0,1.33l1.1,0q0.8,-0.02 0.82,-0.68l0,0q0,-0.65 -0.92,-0.65l0,0zm2.1,-2.04l0.52,0l0,3.81l-0.52,0l0,-3.81zm2.02,0l1.92,3.08l0,-3.08l0.5,0l0,3.81l-0.58,0l-1.94,-3.08l-0.02,0l0,3.08l-0.5,0l0,-3.81l0.62,0zm4.77,3.81l-1.54,0l0,-3.81l1.56,0q1.55,0.08 1.61,1.85l0,0q-0.09,1.92 -1.63,1.96l0,0zm-0.06,-3.39l-0.96,0l0,2.95l1,0q1.09,-0.06 1.13,-1.48l0,0q-0.02,-1.43 -1.17,-1.47l0,0zm2.42,-0.42l0.52,0l0,3.81l-0.52,0l0,-3.81zm2.02,0l1.91,3.08l0,-3.08l0.5,0l0,3.81l-0.58,0l-1.94,-3.08l-0.02,0l0,3.08l-0.5,0l0,-3.81l0.63,0zm6.06,2.21l-1.17,0l0,-0.44l1.67,0l0,2.04l-0.34,0l-0.12,-0.48q-0.44,0.52 -1.25,0.54l0,0q-0.77,0 -1.19,-0.39l0,0q-0.62,-0.59 -0.6,-1.61l0,0q0.14,-1.89 1.81,-1.98l0,0q1.42,0.09 1.62,1.25l0,0l-0.5,0q-0.2,-0.79 -1.14,-0.81l0,0q-1.19,0.09 -1.25,1.56l0,0q0,1.59 1.27,1.59l0,0q0.46,0 0.79,-0.25l0,0q0.42,-0.34 0.4,-1.02l0,0zm4.6,-0.05l-1.25,0l0,1.65l-0.52,0l0,-3.81l1.77,0q1.27,0 1.27,1.02l0,0q0,0.62 -0.54,0.92l0,0q0.46,0.12 0.46,0.72l0,0l0.04,0.69q-0.02,0.29 0.19,0.38l0,0l0,0.08l-0.65,0q-0.06,-0.27 -0.08,-0.96l0,0q0.02,-0.69 -0.69,-0.69l0,0zm0.04,-1.74l-1.29,0l0,1.31l1.21,0q0.77,0 0.77,-0.67l0,0q0,-0.64 -0.69,-0.64l0,0zm2.54,2.93l2.29,0l0,0.46l-2.81,0l0,-3.81l2.77,0l0,0.44l-2.25,0l0,1.18l2.08,0l0,0.46l-2.08,0l0,1.27zm5.81,-1.14l-1.16,0l0,-0.44l1.66,0l0,2.04l-0.33,0l-0.13,-0.48q-0.43,0.52 -1.25,0.54l0,0q-0.77,0 -1.18,-0.39l0,0q-0.63,-0.59 -0.61,-1.61l0,0q0.15,-1.89 1.82,-1.98l0,0q1.41,0.09 1.62,1.25l0,0l-0.5,0q-0.21,-0.79 -1.15,-0.81l0,0q-1.18,0.09 -1.24,1.56l0,0q0,1.59 1.27,1.59l0,0q0.45,0 0.79,-0.25l0,0q0.41,-0.34 0.39,-1.02l0,0zm1.38,-2.21l0.52,0l0,3.81l-0.52,0l0,-3.81zm4.41,1.91l0,0q-0.08,-1.49 -1.33,-1.58l0,0q-1.27,0.06 -1.33,1.58l0,0q0.06,1.48 1.33,1.55l0,0q1.25,-0.09 1.33,-1.55zm0.52,0l0,0q-0.12,1.9 -1.85,1.96l0,0q-1.75,-0.06 -1.87,-1.96l0,0q0.1,-1.97 1.87,-2.02l0,0q1.73,0.07 1.85,2.02zm1.23,-1.91l1.92,3.08l0,-3.08l0.5,0l0,3.81l-0.59,0l-1.93,-3.08l-0.02,0l0,3.08l-0.5,0l0,-3.81l0.62,0zm7.87,1.12l0,0l-0.5,0q-0.18,-0.77 -1.06,-0.79l0,0q-1.21,0.06 -1.25,1.54l0,0q0,1.59 1.27,1.59l0,0q0.88,-0.02 1.09,-1.07l0,0l0.5,0q-0.23,1.44 -1.69,1.48l0,0q-1.67,-0.06 -1.71,-1.98l0,0q0.08,-1.91 1.79,-2l0,0q1.36,0.05 1.56,1.23zm3.17,2.69l-0.38,-1.1l-1.54,0l-0.39,1.1l-0.52,0l1.43,-3.81l0.59,0l1.37,3.81l-0.56,0zm-1.15,-3.25l-0.6,1.69l1.19,0l-0.56,-1.69l-0.03,0zm2.17,-0.56l0.52,0l0,3.35l1.94,0l0,0.46l-2.46,0l0,-3.81zm6.14,1.12l0,0l-0.5,0q-0.18,-0.77 -1.06,-0.79l0,0q-1.21,0.06 -1.25,1.54l0,0q0,1.59 1.27,1.59l0,0q0.88,-0.02 1.09,-1.07l0,0l0.5,0q-0.23,1.44 -1.69,1.48l0,0q-1.67,-0.06 -1.71,-1.98l0,0q0.08,-1.91 1.79,-2l0,0q1.36,0.05 1.56,1.23zm3.17,1.27l0,-2.39l0.52,0l0,2.46q-0.06,1.37 -1.56,1.41l0,0q-1.4,-0.04 -1.46,-1.33l0,0l0,-2.54l0.52,0l0,2.39q0.02,1.05 0.96,1.07l0,0q1.02,-0.02 1.02,-1.07l0,0zm1.31,-2.39l0.52,0l0,3.35l1.94,0l0,0.46l-2.46,0l0,-3.81zm5.48,3.81l-0.38,-1.1l-1.54,0l-0.39,1.1l-0.52,0l1.43,-3.81l0.59,0l1.37,3.81l-0.56,0zm-1.15,-3.25l-0.6,1.69l1.19,0l-0.57,-1.69l-0.02,0zm3.15,-0.12l-1.29,0l0,-0.44l3.08,0l0,0.44l-1.29,0l0,3.37l-0.5,0l0,-3.37zm2.33,-0.44l0.52,0l0,3.81l-0.52,0l0,-3.81zm4.42,1.91l0,0q-0.09,-1.49 -1.34,-1.58l0,0q-1.27,0.06 -1.33,1.58l0,0q0.06,1.48 1.33,1.55l0,0q1.25,-0.09 1.34,-1.55zm0.52,0l0,0q-0.13,1.9 -1.86,1.96l0,0q-1.75,-0.06 -1.87,-1.96l0,0q0.1,-1.97 1.87,-2.02l0,0q1.73,0.07 1.86,2.02zm1.23,-1.91l1.91,3.08l0,-3.08l0.5,0l0,3.81l-0.58,0l-1.94,-3.08l-0.02,0l0,3.08l-0.5,0l0,-3.81l0.63,0zm7.2,3.81l-0.37,-1.1l-1.55,0l-0.39,1.1l-0.52,0l1.44,-3.81l0.58,0l1.37,3.81l-0.56,0zm-1.14,-3.25l-0.61,1.69l1.19,0l-0.56,-1.69l-0.02,0zm2.79,-0.56l1.91,3.08l0,-3.08l0.5,0l0,3.81l-0.58,0l-1.94,-3.08l-0.02,0l0,3.08l-0.5,0l0,-3.81l0.63,0zm4.77,3.81l-1.55,0l0,-3.81l1.57,0q1.54,0.08 1.6,1.85l0,0q-0.08,1.92 -1.62,1.96l0,0zm-0.07,-3.39l-0.96,0l0,2.95l1,0q1.09,-0.06 1.13,-1.48l0,0q-0.02,-1.43 -1.17,-1.47l0,0zm6.33,3.39l-0.37,-1.1l-1.54,0l-0.4,1.1l-0.52,0l1.44,-3.81l0.58,0l1.38,3.81l-0.57,0zm-1.14,-3.25l-0.61,1.69l1.19,0l-0.56,-1.69l-0.02,0zm2.79,-0.56l1.92,3.08l0,-3.08l0.5,0l0,3.81l-0.59,0l-1.93,-3.08l-0.03,0l0,3.08l-0.5,0l0,-3.81l0.63,0zm5.73,3.81l-0.38,-1.1l-1.54,0l-0.4,1.1l-0.52,0l1.44,-3.81l0.58,0l1.38,3.81l-0.56,0zm-1.15,-3.25l-0.6,1.69l1.18,0l-0.56,-1.69l-0.02,0zm2.17,-0.56l0.52,0l0,3.35l1.93,0l0,0.46l-2.45,0l0,-3.81zm6.04,0l-1.44,2.27l0,1.54l-0.52,0l0,-1.54l-1.44,-2.27l0.61,0l1.08,1.83l1.1,-1.83l0.61,0zm3.25,1.1l0,0l-0.48,0q-0.05,-0.73 -0.96,-0.77l0,0q-0.86,0.02 -0.86,0.67l0,0q0,0.41 0.46,0.48l0,0l1.09,0.25q0.85,0.21 0.85,1.04l0,0q-0.02,1.06 -1.5,1.1l0,0q-0.81,0 -1.15,-0.33l0,0q-0.41,-0.31 -0.39,-0.96l0,0l0.5,0q0.02,0.88 1.04,0.9l0,0q1,-0.02 1.02,-0.65l0,0q0.08,-0.52 -0.83,-0.69l0,0l-0.79,-0.16q-0.82,-0.23 -0.82,-0.92l0,0q0.07,-1.12 1.34,-1.17l0,0q1.43,0 1.48,1.21zm0.83,-1.1l0.52,0l0,3.81l-0.52,0l0,-3.81zm4.18,1.1l0,0l-0.47,0q-0.05,-0.73 -0.96,-0.77l0,0q-0.86,0.02 -0.86,0.67l0,0q0,0.41 0.46,0.48l0,0l1.08,0.25q0.86,0.21 0.86,1.04l0,0q-0.02,1.06 -1.5,1.1l0,0q-0.81,0 -1.15,-0.33l0,0q-0.41,-0.31 -0.39,-0.96l0,0l0.5,0q0.02,0.88 1.04,0.9l0,0q1,-0.02 1.02,-0.65l0,0q0.08,-0.52 -0.83,-0.69l0,0l-0.79,-0.16q-0.82,-0.23 -0.82,-0.92l0,0q0.07,-1.12 1.34,-1.17l0,0q1.43,0 1.47,1.21zm5.02,0l0,0l-0.48,0q-0.04,-0.73 -0.95,-0.77l0,0q-0.86,0.02 -0.86,0.67l0,0q0,0.41 0.46,0.48l0,0l1.08,0.25q0.86,0.21 0.86,1.04l0,0q-0.02,1.06 -1.5,1.1l0,0q-0.81,0 -1.15,-0.33l0,0q-0.41,-0.31 -0.39,-0.96l0,0l0.5,0q0.02,0.88 1.04,0.9l0,0q1,-0.02 1.02,-0.65l0,0q0.08,-0.52 -0.83,-0.69l0,0l-0.8,-0.16q-0.81,-0.23 -0.81,-0.92l0,0q0.06,-1.12 1.33,-1.17l0,0q1.44,0 1.48,1.21zm3.77,0.81l0,0q-0.08,-1.49 -1.33,-1.58l0,0q-1.27,0.06 -1.33,1.58l0,0q0.06,1.48 1.33,1.55l0,0q1.25,-0.09 1.33,-1.55zm0.52,0l0,0q-0.12,1.9 -1.85,1.96l0,0q-1.75,-0.06 -1.87,-1.96l0,0q0.1,-1.97 1.87,-2.02l0,0q1.73,0.07 1.85,2.02zm3.07,0.17l-1.88,0l0,1.73l-0.52,0l0,-3.81l2.65,0l0,0.44l-2.13,0l0,1.18l1.88,0l0,0.46zm1.74,-1.64l-1.29,0l0,-0.44l3.09,0l0,0.44l-1.3,0l0,3.37l-0.5,0l0,-3.37zm4.38,0.2l-0.02,0l-0.88,3.17l-0.54,0l-1,-3.81l0.54,0l0.73,3.1l0.02,0l0.86,-3.1l0.56,0l0.85,3.1l0.02,0l0.71,-3.1l0.56,0l-1,3.81l-0.54,0l-0.87,-3.17zm5.41,3.17l-0.37,-1.1l-1.54,0l-0.4,1.1l-0.52,0l1.44,-3.81l0.58,0l1.38,3.81l-0.57,0zm-1.14,-3.25l-0.61,1.69l1.19,0l-0.56,-1.69l-0.02,0zm4,1.6l-1.25,0l0,1.65l-0.52,0l0,-3.81l1.77,0q1.27,0 1.27,1.02l0,0q0,0.62 -0.55,0.92l0,0q0.46,0.12 0.46,0.72l0,0l0.04,0.69q-0.02,0.29 0.19,0.38l0,0l0,0.08l-0.64,0q-0.07,-0.27 -0.09,-0.96l0,0q0.02,-0.69 -0.68,-0.69l0,0zm0.04,-1.74l-1.29,0l0,1.31l1.2,0q0.77,0 0.77,-0.67l0,0q0,-0.64 -0.68,-0.64l0,0zm2.54,2.93l2.29,0l0,0.46l-2.81,0l0,-3.81l2.77,0l0,0.44l-2.25,0l0,1.18l2.08,0l0,0.46l-2.08,0l0,1.27z"/>
      </g>
     </g>
    </g>
   </g>
  </g>
 </g>
</svg>